<svg width="20" height="20" viewBox="0 0 20 20" fill="none" xmlns="http://www.w3.org/2000/svg">
<path d="M9.19928 2.41801C9.23834 2.27351 9.33308 2.15038 9.46276 2.07562C9.59243 2.00085 9.74646 1.98053 9.89108 2.01912L17.0592 3.93855C17.2041 3.9771 17.3278 4.07163 17.4031 4.20136C17.4783 4.3311 17.499 4.48541 17.4605 4.63036L14.7099 14.8919C14.6709 15.0367 14.5759 15.16 14.446 15.2348C14.316 15.3096 14.1617 15.3298 14.0169 15.2908L6.84881 13.3714C6.70409 13.3326 6.58068 13.2379 6.50567 13.1082C6.43066 12.9785 6.41018 12.8244 6.44873 12.6796L9.19928 2.41801Z" stroke="black" stroke-width="1.42857" stroke-linecap="round" stroke-linejoin="round"/>
<path d="M8.67751 4.41602L2.41912 6.09373C2.2744 6.13253 2.15099 6.22717 2.07598 6.35688C2.00097 6.48658 1.98049 6.64075 2.01904 6.78554L4.76721 17.0471C4.80625 17.1919 4.90118 17.3152 5.03113 17.39C5.16108 17.4648 5.31541 17.485 5.4602 17.446L9.04425 16.4863" stroke="black" stroke-width="1.42857" stroke-linecap="round" stroke-linejoin="round"/>
</svg>
