<svg width="16" height="16" viewBox="0 0 16 16" fill="none" xmlns="http://www.w3.org/2000/svg">
<g clip-path="url(#clip0_377_48)">
<path fill-rule="evenodd" clip-rule="evenodd" d="M8.63991 0.377118C8.49958 0.339748 8.35016 0.359547 8.2244 0.432172C8.09865 0.504797 8.00682 0.624323 7.96905 0.764546L5.30277 10.7165C5.26544 10.857 5.28539 11.0066 5.35825 11.1324C5.4311 11.2582 5.5509 11.3499 5.69134 11.3874L12.6433 13.2503C12.7838 13.2876 12.9334 13.2676 13.0592 13.1948C13.1849 13.1219 13.2767 13.0021 13.3142 12.8617L15.9828 2.91083C16.0014 2.84119 16.0062 2.76856 15.9967 2.69709C15.9873 2.62561 15.9639 2.5567 15.9278 2.49429C15.8917 2.43188 15.8436 2.37719 15.7864 2.33336C15.7292 2.28953 15.6639 2.2574 15.5942 2.23883L8.63991 0.377118ZM3.92334 10.3463L5.74734 3.54055L0.406765 4.97026C0.337105 4.98883 0.271788 5.02095 0.21455 5.06479C0.157312 5.10862 0.109276 5.16331 0.0731877 5.22572C0.0370995 5.28813 0.0136673 5.35704 0.00423104 5.42852C-0.00520522 5.49999 -0.000460501 5.57262 0.0181939 5.64226L2.68677 15.5931C2.72429 15.7336 2.81601 15.8534 2.9418 15.9262C3.06758 15.9991 3.21714 16.019 3.35762 15.9817L10.3108 14.1188C10.3196 14.1164 10.3284 14.1137 10.3371 14.1108L5.31991 12.768C5.069 12.7007 4.83379 12.5847 4.62773 12.4266C4.42168 12.2684 4.24881 12.0712 4.119 11.8462C3.9892 11.6212 3.90501 11.3728 3.87124 11.1152C3.83747 10.8577 3.85478 10.596 3.92219 10.3451L3.92334 10.3463Z" fill="black"/>
</g>
<defs>
<clipPath id="clip0_377_48">
<rect width="16" height="16" fill="white"/>
</clipPath>
</defs>
</svg>
