<svg width="26" height="26" viewBox="0 0 26 26" fill="none" xmlns="http://www.w3.org/2000/svg">
<path d="M7.58366 4.33335C7.58366 3.75872 7.81193 3.20762 8.21826 2.80129C8.62459 2.39496 9.17569 2.16669 9.75032 2.16669H16.2503C16.825 2.16669 17.3761 2.39496 17.7824 2.80129C18.1887 3.20762 18.417 3.75872 18.417 4.33335V6.50002H22.7503C23.0376 6.50002 23.3132 6.61416 23.5164 6.81732C23.7195 7.02049 23.8337 7.29604 23.8337 7.58335C23.8337 7.87067 23.7195 8.14622 23.5164 8.34939C23.3132 8.55255 23.0376 8.66669 22.7503 8.66669H21.5922L20.653 21.8205C20.6141 22.3672 20.3695 22.8787 19.9684 23.2522C19.5674 23.6257 19.0398 23.8334 18.4917 23.8334H7.50782C6.95981 23.8334 6.43215 23.6257 6.03112 23.2522C5.63009 22.8787 5.38548 22.3672 5.34658 21.8205L4.40949 8.66669H3.25033C2.96301 8.66669 2.68746 8.55255 2.48429 8.34939C2.28113 8.14622 2.16699 7.87067 2.16699 7.58335C2.16699 7.29604 2.28113 7.02049 2.48429 6.81732C2.68746 6.61416 2.96301 6.50002 3.25033 6.50002H7.58366V4.33335ZM9.75032 6.50002H16.2503V4.33335H9.75032V6.50002ZM6.58049 8.66669L7.50891 21.6667H18.4928L19.4212 8.66669H6.58049ZM10.8337 10.8334C11.121 10.8334 11.3965 10.9475 11.5997 11.1507C11.8029 11.3538 11.917 11.6294 11.917 11.9167V18.4167C11.917 18.704 11.8029 18.9796 11.5997 19.1827C11.3965 19.3859 11.121 19.5 10.8337 19.5C10.5463 19.5 10.2708 19.3859 10.0676 19.1827C9.86446 18.9796 9.75032 18.704 9.75032 18.4167V11.9167C9.75032 11.6294 9.86446 11.3538 10.0676 11.1507C10.2708 10.9475 10.5463 10.8334 10.8337 10.8334ZM15.167 10.8334C15.4543 10.8334 15.7299 10.9475 15.933 11.1507C16.1362 11.3538 16.2503 11.6294 16.2503 11.9167V18.4167C16.2503 18.704 16.1362 18.9796 15.933 19.1827C15.7299 19.3859 15.4543 19.5 15.167 19.5C14.8797 19.5 14.6041 19.3859 14.401 19.1827C14.1978 18.9796 14.0837 18.704 14.0837 18.4167V11.9167C14.0837 11.6294 14.1978 11.3538 14.401 11.1507C14.6041 10.9475 14.8797 10.8334 15.167 10.8334Z" fill="#F66163"/>
</svg>
