<svg width="20" height="20" viewBox="0 0 20 20" fill="none" xmlns="http://www.w3.org/2000/svg">
<path d="M8.03906 5.92593V4.07408C8.03906 3.58294 8.24564 3.11191 8.61336 2.76462C8.98108 2.41733 9.47981 2.22223 9.99985 2.22223H16.8626C17.3826 2.22223 17.8814 2.41733 18.2491 2.76462C18.6168 3.11191 18.8234 3.58294 18.8234 4.07408V15.1852C18.8234 15.6763 18.6168 16.1474 18.2491 16.4946C17.8814 16.8419 17.3826 17.037 16.8626 17.037H9.99985C9.47981 17.037 8.98108 16.8419 8.61336 16.4946C8.24564 16.1474 8.03906 15.6763 8.03906 15.1852V13.3333" stroke="black" stroke-width="2" stroke-linecap="round" stroke-linejoin="round"/>
<path d="M12.9405 9.62965H1.17578M1.17578 9.62965L4.11696 6.85187M1.17578 9.62965L4.11696 12.4074" stroke="black" stroke-width="2" stroke-linecap="round" stroke-linejoin="round"/>
</svg>
