<svg width="48" height="48" viewBox="0 0 48 48" fill="none" xmlns="http://www.w3.org/2000/svg">
<path d="M27.1985 22.5731C26.294 23.1774 25.2307 23.5 24.1429 23.5C22.6842 23.5 21.2852 22.9205 20.2538 21.8891C19.2223 20.8576 18.6429 19.4587 18.6429 18C18.6429 16.9122 18.9654 15.8488 19.5698 14.9444C20.1741 14.0399 21.0331 13.3349 22.0381 12.9187C23.0431 12.5024 24.149 12.3935 25.2159 12.6057C26.2827 12.8179 27.2628 13.3417 28.0319 14.1109C28.8011 14.8801 29.325 15.8601 29.5372 16.927C29.7494 17.9939 29.6405 19.0998 29.2242 20.1048C28.8079 21.1098 28.103 21.9687 27.1985 22.5731ZM13.5 32.5714C13.5 30.5939 15.1164 29.0062 17.3979 27.8813C19.6512 26.7704 22.3614 26.2143 24.1429 26.2143C25.9243 26.2143 28.6345 26.7704 30.8878 27.8813C33.1693 29.0062 34.7857 30.5939 34.7857 32.5714V35.5H13.5V32.5714Z" fill="white" stroke="white"/>
</svg>
