<svg width="48" height="48" viewBox="0 0 48 48" fill="none" xmlns="http://www.w3.org/2000/svg">
<path d="M20.9385 32.4933L20.9013 32.1961L20.6218 32.0886C20.3838 31.9971 20.1614 31.8879 19.9539 31.7613C19.7312 31.6256 19.5126 31.48 19.2981 31.3245L19.0703 31.1595L18.811 31.2684L15.5769 32.6273L12.6541 27.5789L15.4524 25.4598L15.6872 25.282L15.6456 24.9905C15.6282 24.869 15.62 24.7553 15.62 24.6488V23.823C15.62 23.7156 15.6282 23.6014 15.6456 23.4801L15.6872 23.1886L15.4524 23.0108L12.6541 20.8917L15.5769 15.8432L18.811 17.2021L19.0709 17.3113L19.2988 17.1455C19.5092 16.9925 19.7297 16.8487 19.9602 16.7142C20.187 16.5819 20.4118 16.4697 20.6347 16.3768L20.9025 16.2652L20.9385 15.9773L21.3732 12.5H27.2198L27.6545 15.9773L27.6916 16.2745L27.9711 16.382C28.2093 16.4736 28.4324 16.5829 28.641 16.7097C28.8638 16.845 29.0813 16.9901 29.2934 17.145L29.5216 17.3115L29.7819 17.2021L33.0161 15.8432L35.9388 20.8917L33.1405 23.0108L32.9057 23.1886L32.9474 23.4801C32.9647 23.6014 32.9729 23.7156 32.9729 23.823V24.6476C32.9729 24.7291 32.9605 24.8206 32.931 24.9238L32.8369 25.2531L33.1099 25.4598L35.9083 27.5789L32.9862 32.6262L29.7833 31.269L29.5229 31.1587L29.2941 31.325C29.0837 31.4781 28.8633 31.6219 28.6328 31.7563C28.406 31.8887 28.1811 32.0009 27.9583 32.0938L27.6904 32.2054L27.6545 32.4933L27.2198 35.9706H21.3732L20.9385 32.4933ZM24.3576 29.0176C25.673 29.0176 26.8096 28.547 27.7394 27.6171C28.6693 26.6872 29.14 25.5506 29.14 24.2353C29.14 22.92 28.6693 21.7834 27.7394 20.8535C26.8096 19.9236 25.673 19.4529 24.3576 19.4529C23.0244 19.4529 21.8806 19.922 20.9579 20.8556C20.0384 21.786 19.5744 22.9221 19.5753 24.2356C19.5762 25.5488 20.0405 26.6846 20.9589 27.6148C21.8808 28.5486 23.0244 29.0176 24.3576 29.0176Z" fill="white" stroke="white"/>
</svg>
