<svg width="20" height="20" viewBox="0 0 20 20" fill="none" xmlns="http://www.w3.org/2000/svg">
  <path fill="currentColor" d="M8.15235 2.29125C9.79157 1.84617 11.5276 1.9125 13.1281 2.48137C14.7286 3.05025 16.1171 4.0945 17.1077 5.47432V3.82287C17.1077 3.61562 17.19 3.41686 17.3365 3.27031C17.4831 3.12376 17.6818 3.04143 17.8891 3.04143C18.0963 3.04143 18.2951 3.12376 18.4417 3.27031C18.5882 3.41686 18.6705 3.61562 18.6705 3.82287V8.25104H14.2424C14.0351 8.25104 13.8364 8.16871 13.6898 8.02216C13.5433 7.87561 13.4609 7.67685 13.4609 7.4696C13.4609 7.26235 13.5433 7.06358 13.6898 6.91703C13.8364 6.77049 14.0351 6.68816 14.2424 6.68816H16.0418C15.2256 5.41127 14.0048 4.44502 12.5745 3.94398C11.1443 3.44294 9.58737 3.43606 8.15278 3.92446C6.7182 4.41285 5.48886 5.36828 4.66145 6.63791C3.83404 7.90754 3.45636 9.418 3.58884 10.9276C3.72132 12.4373 4.35629 13.8589 5.39219 14.965C6.42808 16.0711 7.80503 16.7978 9.30276 17.0289C10.8005 17.26 12.3324 16.982 13.6535 16.2395C14.9746 15.4971 16.0085 14.3329 16.5898 12.9334C16.6276 12.8364 16.6843 12.7479 16.7567 12.6731C16.8291 12.5983 16.9158 12.5387 17.0115 12.4979C17.1073 12.457 17.2102 12.4357 17.3143 12.4352C17.4184 12.4347 17.5216 12.455 17.6178 12.495C17.7139 12.5349 17.8011 12.5936 17.8742 12.6677C17.9474 12.7418 18.005 12.8297 18.0437 12.9264C18.0823 13.023 18.1013 13.1265 18.0994 13.2305C18.0976 13.3346 18.075 13.4373 18.0329 13.5325C17.4898 14.8397 16.6229 15.987 15.5137 16.8663C14.4046 17.7457 13.0898 18.3281 11.6932 18.5587C10.2967 18.7892 8.86445 18.6604 7.5315 18.1843C6.19854 17.7081 5.00879 16.9004 4.07438 15.8372C3.13998 14.774 2.49171 13.4904 2.19069 12.1073C1.88966 10.7243 1.94579 9.28735 2.35378 7.93199C2.76178 6.57663 3.5082 5.34749 4.52269 4.36043C5.53718 3.37337 6.78631 2.66195 8.15235 2.29125Z"/>
  <path fill="currentColor" d="M10.387 6.2106C10.2344 6.07496 10.0374 6.00003 9.83333 6C9.61232 6 9.40036 6.0878 9.24408 6.24408C9.0878 6.40036 9 6.61232 9 6.83333V11L9.0075 11.1092C9.03147 11.2908 9.11465 11.4595 9.24417 11.5892L11.7442 14.0892L11.8225 14.1583C11.99 14.2878 12.2005 14.3487 12.4113 14.3287C12.622 14.3086 12.8173 14.209 12.9573 14.0502C13.0973 13.8914 13.1717 13.6853 13.1652 13.4737C13.1587 13.262 13.072 13.0608 12.9225 12.9108L10.6667 10.655V6.83333L10.6608 6.73583C10.637 6.53312 10.5395 6.34623 10.387 6.2106Z"/>
</svg>
