<svg width="48" height="48" viewBox="0 0 48 48" fill="none" xmlns="http://www.w3.org/2000/svg">
<path d="M24.2964 12.6921L24.3333 12.6604L24.37 12.6921C24.6044 12.8943 24.9445 13.1876 25.3668 13.5515C26.2115 14.2794 27.3854 15.2901 28.7024 16.4213C31.3359 18.6833 34.5432 21.4287 36.8339 23.3584L36.8425 23.3657L36.8514 23.3725C36.9485 23.4471 37.0273 23.5427 37.0819 23.6523C37.1362 23.7611 37.1652 23.8807 37.1667 24.0023C37.1661 24.2225 37.0783 24.4335 36.9226 24.5893C36.7663 24.7455 36.5543 24.8333 36.3333 24.8333H33.6667H33.1667V25.3333V34.6667C33.1667 34.8877 33.0789 35.0996 32.9226 35.2559C32.7663 35.4122 32.5543 35.5 32.3333 35.5H28.3333C28.1123 35.5 27.9004 35.4122 27.7441 35.2559C27.5878 35.0996 27.5 34.8877 27.5 34.6667V29.3333V28.8333H27H21.6667H21.1667V29.3333V34.6667C21.1667 34.8877 21.0789 35.0996 20.9226 35.2559C20.7663 35.4122 20.5543 35.5 20.3333 35.5H16.3333C16.1123 35.5 15.9004 35.4122 15.7441 35.2559C15.5878 35.0996 15.5 34.8877 15.5 34.6667V25.3333V24.8333H15H12.3333C12.1123 24.8333 11.9004 24.7455 11.7441 24.5893C11.5887 24.4339 11.5011 24.2236 11.5 24.004C11.5026 23.881 11.5307 23.7598 11.5826 23.6482C11.6344 23.5367 11.7088 23.4372 11.8011 23.3559C14.108 21.426 17.322 18.6823 19.9586 16.4216C21.278 15.2903 22.4533 14.2796 23.2988 13.5517C23.7215 13.1877 24.0618 12.8944 24.2964 12.6921Z" fill="white" stroke="white"/>
</svg>
