<svg width="48" height="48" viewBox="0 0 48 48" fill="none" xmlns="http://www.w3.org/2000/svg">
<path d="M15.8887 23.1699V27.449C15.8887 28.4218 16.6615 29.3547 18.0372 30.0425C19.4129 30.7304 21.2788 31.1168 23.2243 31.1168C25.1698 31.1168 27.0356 30.7304 28.4113 30.0425C29.787 29.3547 30.5599 28.4218 30.5599 27.449V23.1699" fill="white"/>
<path d="M15.8887 23.1699V27.449C15.8887 28.4218 16.6615 29.3547 18.0372 30.0425C19.4129 30.7304 21.2788 31.1168 23.2243 31.1168C25.1698 31.1168 27.0356 30.7304 28.4113 30.0425C29.787 29.3547 30.5599 28.4218 30.5599 27.449V23.1699" stroke="white" stroke-width="1.5" stroke-linecap="round" stroke-linejoin="round"/>
<path d="M35.4707 20.5881C35.4707 23.4529 35.4707 25.059 35.4707 27.9237" stroke="white" stroke-width="1.5" stroke-linecap="round" stroke-linejoin="round"/>
<path d="M34.7415 21.2407C34.9603 21.1441 35.1461 20.9855 35.2757 20.7844C35.4052 20.5833 35.473 20.3487 35.4705 20.1094C35.4681 19.8702 35.3955 19.637 35.2617 19.4387C35.128 19.2403 34.939 19.0855 34.7182 18.9935L24.2393 14.2205C23.9208 14.0752 23.5747 14 23.2246 14C22.8744 14 22.5284 14.0752 22.2098 14.2205L11.7321 18.9886C11.5145 19.084 11.3293 19.2407 11.1993 19.4396C11.0692 19.6385 11 19.8709 11 20.1085C11 20.3462 11.0692 20.5786 11.1993 20.7775C11.3293 20.9764 11.5145 21.1331 11.7321 21.2284L22.2098 26.0064C22.5284 26.1517 22.8744 26.2269 23.2246 26.2269C23.5747 26.2269 23.9208 26.1517 24.2393 26.0064L34.7415 21.2407Z" fill="white" stroke="black" stroke-width="1.5" stroke-linecap="round" stroke-linejoin="round"/>
<rect x="33.9355" y="28.4707" width="3" height="6" rx="1.5" stroke="white" stroke-width="1.5"/>
</svg>
