<svg width="24" height="24" viewBox="0 0 24 24" fill="none" xmlns="http://www.w3.org/2000/svg">
<circle cx="12" cy="12" r="10" fill="#F5F5F7"/>
<path d="M12 20.75C9.67936 20.75 7.45376 19.8281 5.81282 18.1872C4.17187 16.5462 3.25 14.3206 3.25 12C3.25 9.67936 4.17187 7.45376 5.81282 5.81282C7.45376 4.17187 9.67936 3.25 12 3.25C14.3206 3.25 16.5462 4.17187 18.1872 5.81282C19.8281 7.45376 20.75 9.67936 20.75 12C20.75 14.3206 19.8281 16.5462 18.1872 18.1872C16.5462 19.8281 14.3206 20.75 12 20.75ZM12 22C14.6522 22 17.1957 20.9464 19.0711 19.0711C20.9464 17.1957 22 14.6522 22 12C22 9.34784 20.9464 6.8043 19.0711 4.92893C17.1957 3.05357 14.6522 2 12 2C9.34784 2 6.8043 3.05357 4.92893 4.92893C3.05357 6.8043 2 9.34784 2 12C2 14.6522 3.05357 17.1957 4.92893 19.0711C6.8043 20.9464 9.34784 22 12 22Z" fill="black"/>
<path d="M13.4326 8.43252C13.4907 8.37431 13.5597 8.32814 13.6356 8.29663C13.7115 8.26512 13.7929 8.2489 13.8751 8.2489C13.9573 8.2489 14.0388 8.26512 14.1147 8.29663C14.1906 8.32814 14.2596 8.37431 14.3176 8.43252L15.1251 9.24127L15.9326 8.43252C16.05 8.31516 16.2092 8.24923 16.3751 8.24923C16.5411 8.24923 16.7003 8.31516 16.8176 8.43252C16.935 8.54988 17.0009 8.70905 17.0009 8.87502C17.0009 9.04099 16.935 9.20016 16.8176 9.31752L16.0089 10.125L16.8176 10.9325C16.935 11.0499 17.0009 11.209 17.0009 11.375C17.0009 11.541 16.935 11.7002 16.8176 11.8175C16.7003 11.9349 16.5411 12.0008 16.3751 12.0008C16.2092 12.0008 16.05 11.9349 15.9326 11.8175L15.1251 11.0088L14.3176 11.8175C14.2595 11.8756 14.1905 11.9217 14.1146 11.9532C14.0387 11.9846 13.9573 12.0008 13.8751 12.0008C13.793 12.0008 13.7116 11.9846 13.6357 11.9532C13.5597 11.9217 13.4908 11.8756 13.4326 11.8175C13.3745 11.7594 13.3284 11.6904 13.297 11.6145C13.2655 11.5386 13.2494 11.4572 13.2494 11.375C13.2494 11.2928 13.2655 11.2115 13.297 11.1355C13.3284 11.0596 13.3745 10.9906 13.4326 10.9325L14.2414 10.125L13.4326 9.31752C13.3744 9.25946 13.3283 9.19049 13.2968 9.11456C13.2652 9.03863 13.249 8.95723 13.249 8.87502C13.249 8.79281 13.2652 8.71141 13.2968 8.63548C13.3283 8.55954 13.3744 8.49058 13.4326 8.43252ZM7.18264 8.43252C7.2407 8.37431 7.30967 8.32814 7.3856 8.29663C7.46153 8.26512 7.54293 8.2489 7.62514 8.2489C7.70735 8.2489 7.78875 8.26512 7.86468 8.29663C7.94061 8.32814 8.00958 8.37431 8.06764 8.43252L8.87514 9.24127L9.68264 8.43252C9.74075 8.37441 9.80974 8.32831 9.88566 8.29686C9.96159 8.26542 10.043 8.24923 10.1251 8.24923C10.2073 8.24923 10.2887 8.26542 10.3646 8.29686C10.4405 8.32831 10.5095 8.37441 10.5676 8.43252C10.6258 8.49063 10.6718 8.55961 10.7033 8.63554C10.7347 8.71146 10.7509 8.79284 10.7509 8.87502C10.7509 8.9572 10.7347 9.03857 10.7033 9.1145C10.6718 9.19042 10.6258 9.25941 10.5676 9.31752L9.75889 10.125L10.5676 10.9325C10.6258 10.9906 10.6718 11.0596 10.7033 11.1355C10.7347 11.2115 10.7509 11.2928 10.7509 11.375C10.7509 11.4572 10.7347 11.5386 10.7033 11.6145C10.6718 11.6904 10.6258 11.7594 10.5676 11.8175C10.5095 11.8756 10.4405 11.9217 10.3646 11.9532C10.2887 11.9846 10.2073 12.0008 10.1251 12.0008C10.043 12.0008 9.96159 11.9846 9.88566 11.9532C9.80974 11.9217 9.74075 11.8756 9.68264 11.8175L8.87514 11.0088L8.06764 11.8175C8.00953 11.8756 7.94054 11.9217 7.86462 11.9532C7.7887 11.9846 7.70732 12.0008 7.62514 12.0008C7.54296 12.0008 7.46159 11.9846 7.38566 11.9532C7.30974 11.9217 7.24075 11.8756 7.18264 11.8175C7.12453 11.7594 7.07844 11.6904 7.04699 11.6145C7.01554 11.5386 6.99935 11.4572 6.99935 11.375C6.99935 11.2928 7.01554 11.2115 7.04699 11.1355C7.07844 11.0596 7.12453 10.9906 7.18264 10.9325L7.99139 10.125L7.18264 9.31752C7.12444 9.25946 7.07826 9.19049 7.04675 9.11456C7.01524 9.03863 6.99902 8.95723 6.99902 8.87502C6.99902 8.79281 7.01524 8.71141 7.04675 8.63548C7.07826 8.55954 7.12444 8.49058 7.18264 8.43252ZM14.5001 15.75C14.5001 16.4131 14.2367 17.0489 13.7679 17.5178C13.2991 17.9866 12.6632 18.25 12.0001 18.25C11.3371 18.25 10.7012 17.9866 10.2324 17.5178C9.76353 17.0489 9.50014 16.4131 9.50014 15.75C9.50014 15.087 9.76353 14.4511 10.2324 13.9823C10.7012 13.5134 11.3371 13.25 12.0001 13.25C12.6632 13.25 13.2991 13.5134 13.7679 13.9823C14.2367 14.4511 14.5001 15.087 14.5001 15.75Z" fill="black"/>
</svg>
