<svg width="40" height="40" viewBox="0 0 40 40" fill="none" xmlns="http://www.w3.org/2000/svg">
<circle cx="20.0007" cy="20" r="16.6667" fill="#F5F5F7"/>
<path d="M20.0007 3.33334C21.5306 3.33334 23.0063 3.52866 24.4277 3.91928C25.8492 4.30991 27.1784 4.86872 28.4154 5.59571C29.6523 6.32271 30.7754 7.19077 31.7845 8.19988C32.7936 9.20899 33.6617 10.3375 34.3887 11.5853C35.1157 12.8331 35.6745 14.1623 36.0651 15.5729C36.4557 16.9835 36.6565 18.4592 36.6673 20C36.6673 21.53 36.472 23.0057 36.0814 24.4271C35.6908 25.8485 35.1319 27.1777 34.405 28.4147C33.678 29.6517 32.8099 30.7748 31.8008 31.7839C30.7917 32.793 29.6632 33.661 28.4154 34.388C27.1675 35.115 25.8383 35.6738 24.4277 36.0645C23.0171 36.4551 21.5415 36.6558 20.0007 36.6667C18.4707 36.6667 16.995 36.4714 15.5736 36.0807C14.1521 35.6901 12.8229 35.1313 11.5859 34.4043C10.349 33.6773 9.22591 32.8093 8.2168 31.8001C7.20768 30.791 6.33963 29.6626 5.61263 28.4147C4.88563 27.1669 4.32682 25.8431 3.9362 24.4434C3.54557 23.0436 3.34484 21.5625 3.33398 20C3.33398 18.4701 3.5293 16.9944 3.91992 15.5729C4.31055 14.1515 4.86936 12.8223 5.59635 11.5853C6.32335 10.3483 7.19141 9.22527 8.20052 8.21616C9.20964 7.20704 10.3381 6.33899 11.5859 5.61199C12.8338 4.88499 14.1576 4.32618 15.5573 3.93556C16.957 3.54493 18.4382 3.34419 20.0007 3.33334ZM20.0007 34.5833C21.3353 34.5833 22.6211 34.4097 23.8581 34.0625C25.0951 33.7153 26.2561 33.227 27.3411 32.5977C28.4262 31.9683 29.4136 31.2034 30.3034 30.3027C31.1931 29.4021 31.9527 28.4202 32.582 27.3568C33.2114 26.2934 33.7051 25.1324 34.0632 23.8737C34.4212 22.615 34.5948 21.3238 34.584 20C34.584 18.6654 34.4104 17.3796 34.0632 16.1426C33.7159 14.9056 33.2276 13.7446 32.5983 12.6595C31.969 11.5744 31.204 10.587 30.3034 9.69728C29.4028 8.80752 28.4208 8.04797 27.3574 7.41863C26.2941 6.78929 25.133 6.29558 23.8744 5.93751C22.6157 5.57944 21.3244 5.40583 20.0007 5.41668C18.666 5.41668 17.3802 5.59029 16.1432 5.93751C14.9063 6.28473 13.7452 6.77301 12.6602 7.40235C11.5751 8.03169 10.5877 8.79667 9.69792 9.69728C8.80816 10.5979 8.04861 11.5799 7.41927 12.6432C6.78993 13.7066 6.29622 14.8676 5.93815 16.1263C5.58008 17.385 5.40647 18.6762 5.41732 20C5.41732 21.3346 5.59093 22.6205 5.93815 23.8574C6.28537 25.0944 6.77365 26.2554 7.403 27.3405C8.03234 28.4256 8.79731 29.413 9.69792 30.3027C10.5985 31.1925 11.5805 31.9521 12.6439 32.5814C13.7072 33.2107 14.8683 33.7044 16.127 34.0625C17.3856 34.4206 18.6769 34.5942 20.0007 34.5833ZM13.7507 11.6667C14.0436 11.6667 14.3149 11.7209 14.5645 11.8294C14.814 11.9379 15.031 12.0844 15.2155 12.2689C15.4 12.4534 15.5519 12.6758 15.6712 12.9362C15.7906 13.1966 15.8448 13.4679 15.834 13.75H11.6673C11.6673 13.457 11.7216 13.1858 11.8301 12.9362C11.9386 12.6866 12.0851 12.4696 12.2695 12.2852C12.454 12.1007 12.6764 11.9488 12.9368 11.8294C13.1973 11.7101 13.4685 11.6558 13.7507 11.6667ZM26.2507 11.6667C26.5436 11.6667 26.8149 11.7209 27.0645 11.8294C27.314 11.9379 27.531 12.0844 27.7155 12.2689C27.9 12.4534 28.0519 12.6758 28.1712 12.9362C28.2906 13.1966 28.3448 13.4679 28.334 13.75H24.1673C24.1673 13.457 24.2216 13.1858 24.3301 12.9362C24.4386 12.6866 24.5851 12.4696 24.7695 12.2852C24.954 12.1007 25.1764 11.9488 25.4369 11.8294C25.6973 11.7101 25.9685 11.6558 26.2507 11.6667ZM27.2923 15.8333C27.7263 15.8333 28.1332 15.9147 28.513 16.0775C28.8928 16.2402 29.2237 16.4627 29.5059 16.7448C29.788 17.0269 30.0104 17.3579 30.1732 17.7376C30.3359 18.1174 30.4173 18.5243 30.4173 18.9583V20C30.4173 21.4432 30.1461 22.7941 29.6035 24.0527C29.061 25.3114 28.3177 26.4182 27.3737 27.3731C26.4297 28.3279 25.3283 29.0712 24.0697 29.6029C22.811 30.1346 21.4546 30.4058 20.0007 30.4167C18.5575 30.4167 17.2066 30.1454 15.9479 29.6029C14.6892 29.0603 13.5825 28.3171 12.6276 27.3731C11.6727 26.429 10.9295 25.3277 10.3978 24.069C9.8661 22.8103 9.59484 21.454 9.58398 20C9.58398 19.4792 9.62739 18.9692 9.71419 18.4701C9.801 17.9709 9.95833 17.5261 10.1862 17.1354C10.4141 16.7448 10.7287 16.4301 11.1302 16.1914C11.5317 15.9527 12.0579 15.8333 12.709 15.8333C13.5119 15.8333 14.2118 15.9419 14.8086 16.1589C15.4054 16.3759 15.9696 16.6146 16.5013 16.875C17.033 17.1354 17.5755 17.3741 18.1289 17.5912C18.6823 17.8082 19.3062 17.9167 20.0007 17.9167C20.6951 17.9167 21.3136 17.8082 21.8561 17.5912C22.3987 17.3741 22.9412 17.1354 23.4837 16.875C24.0263 16.6146 24.5959 16.3759 25.1927 16.1589C25.7895 15.9419 26.4894 15.8333 27.2923 15.8333ZM28.334 18.9583C28.334 18.6762 28.2309 18.4321 28.0247 18.2259C27.8186 18.0198 27.5744 17.9167 27.2923 17.9167C26.8257 17.9167 26.3971 17.9655 26.0065 18.0632C25.6159 18.1608 25.2415 18.291 24.8835 18.4538C24.5254 18.6165 24.1673 18.7847 23.8092 18.9583C23.4512 19.132 23.0822 19.3001 22.7025 19.4629C22.3227 19.6257 21.9104 19.7504 21.4655 19.8373C21.0206 19.9241 20.5323 19.9783 20.0007 20C19.469 20 18.9861 19.9512 18.5521 19.8535C18.1181 19.7559 17.7057 19.6257 17.3151 19.4629C16.9245 19.3001 16.5556 19.132 16.2083 18.9583C15.8611 18.7847 15.503 18.6165 15.1341 18.4538C14.7652 18.291 14.3854 18.1662 13.9948 18.0794C13.6042 17.9926 13.1756 17.9384 12.709 17.9167C12.4269 17.9167 12.1827 18.0198 11.9766 18.2259C11.7704 18.4321 11.6673 18.6762 11.6673 18.9583V20C11.6673 21.1502 11.8843 22.2298 12.3184 23.2389C12.7524 24.2481 13.3492 25.127 14.1087 25.8757C14.8683 26.6244 15.7526 27.2211 16.7617 27.666C17.7708 28.1109 18.8505 28.3333 20.0007 28.3333C21.1508 28.3333 22.2305 28.1163 23.2396 27.6823C24.2487 27.2483 25.1276 26.6515 25.8763 25.8919C26.625 25.1324 27.2218 24.2481 27.6667 23.2389C28.1115 22.2298 28.334 21.1502 28.334 20V18.9583Z" fill="black"/>
</svg>
