<svg width="40" height="40" viewBox="0 0 40 40" fill="none" xmlns="http://www.w3.org/2000/svg">
<circle cx="20.0007" cy="20" r="16.6667" fill="#F5F5F7"/>
<path d="M14.584 18.3333C15.1365 18.3333 15.6664 18.1139 16.0571 17.7231C16.4478 17.3324 16.6673 16.8025 16.6673 16.25C16.6673 15.6975 16.4478 15.1676 16.0571 14.7769C15.6664 14.3862 15.1365 14.1667 14.584 14.1667C14.0315 14.1667 13.5015 14.3862 13.1108 14.7769C12.7201 15.1676 12.5007 15.6975 12.5007 16.25C12.5007 16.8025 12.7201 17.3324 13.1108 17.7231C13.5015 18.1139 14.0315 18.3333 14.584 18.3333ZM27.5007 16.25C27.5007 16.8025 27.2812 17.3324 26.8905 17.7231C26.4998 18.1139 25.9699 18.3333 25.4173 18.3333C24.8648 18.3333 24.3349 18.1139 23.9442 17.7231C23.5535 17.3324 23.334 16.8025 23.334 16.25C23.334 15.6975 23.5535 15.1676 23.9442 14.7769C24.3349 14.3862 24.8648 14.1667 25.4173 14.1667C25.9699 14.1667 26.4998 14.3862 26.8905 14.7769C27.2812 15.1676 27.5007 15.6975 27.5007 16.25ZM15.3773 28.9008C16.8042 29.6429 18.3925 30.0206 20.0007 30C21.6086 30.0198 23.1966 29.6422 24.6236 28.9008C26.0506 28.1594 27.2724 27.0771 28.1807 25.75C28.3251 25.5146 28.3701 25.2315 28.3058 24.9629C28.2415 24.6944 28.0731 24.4624 27.8377 24.3179C27.6024 24.1735 27.3192 24.1285 27.0507 24.1928C26.7821 24.2571 26.5501 24.4255 26.4057 24.6608C25.6847 25.6849 24.7241 26.517 23.6077 27.0846C22.4912 27.6521 21.2529 27.9378 20.0007 27.9167C18.7484 27.9372 17.5101 27.6512 16.3937 27.0838C15.2772 26.5163 14.3163 25.6845 13.5948 24.6608C13.4504 24.4255 13.2184 24.2571 12.9498 24.1928C12.6812 24.1285 12.3981 24.1735 12.1627 24.3179C11.9274 24.4624 11.759 24.6944 11.6947 24.9629C11.6304 25.2315 11.6754 25.5146 11.8198 25.75C12.7276 27.0776 13.9498 28.1601 15.3773 28.9008ZM20.0007 3.33334C10.7957 3.33334 3.33398 10.795 3.33398 20C3.33398 29.205 10.7957 36.6667 20.0007 36.6667C29.2057 36.6667 36.6673 29.205 36.6673 20C36.6673 10.795 29.2057 3.33334 20.0007 3.33334ZM5.41732 20C5.41732 11.9458 11.9465 5.41668 20.0007 5.41668C28.0548 5.41668 34.584 11.9458 34.584 20C34.584 28.0542 28.0548 34.5833 20.0007 34.5833C11.9465 34.5833 5.41732 28.0542 5.41732 20Z" fill="black"/>
</svg>
