<svg width="40" height="40" viewBox="0 0 40 40" fill="none" xmlns="http://www.w3.org/2000/svg">
<circle cx="19.1673" cy="20.8333" r="15.8333" fill="#F5F5F7"/>
<path d="M19.1673 36.6667C27.9118 36.6667 35.0006 29.5778 35.0006 20.8333C35.0006 12.0888 27.9118 5 19.1673 5C10.4228 5 3.33398 12.0888 3.33398 20.8333C3.33398 29.5778 10.4228 36.6667 19.1673 36.6667Z" stroke="black" stroke-width="2" stroke-linecap="round" stroke-linejoin="round"/>
<path d="M14.0322 18.6936C15.2139 18.6936 16.1719 17.7357 16.1719 16.554C16.1719 15.3723 15.2139 14.4144 14.0322 14.4144C12.8505 14.4144 11.8926 15.3723 11.8926 16.554C11.8926 17.7357 12.8505 18.6936 14.0322 18.6936Z" fill="black"/>
<path d="M24.3017 18.6936C25.4834 18.6936 26.4414 17.7357 26.4414 16.554C26.4414 15.3723 25.4834 14.4144 24.3017 14.4144C23.1201 14.4144 22.1621 15.3723 22.1621 16.554C22.1621 17.7357 23.1201 18.6936 24.3017 18.6936Z" fill="black"/>
<path d="M25.097 27.3601C24.4961 26.3193 23.6317 25.4551 22.5909 24.8542C21.5501 24.2533 20.3695 23.937 19.1677 23.937C17.9658 23.937 16.7852 24.2533 15.7444 24.8542C14.7036 25.4551 13.8392 26.3193 13.2383 27.3601" stroke="black" stroke-width="2" stroke-linecap="round" stroke-linejoin="round"/>
</svg>
