<svg width="286" height="161" viewBox="0 0 286 161" fill="none" xmlns="http://www.w3.org/2000/svg">
<g clip-path="url(#clip0_173_61)">
<path d="M196.818 65.3229L197.554 67.2444C197.375 66.5743 197.123 65.9379 196.818 65.3229Z" fill="white"/>
<path d="M230.034 66.7978C230.732 63.4748 231.449 60.1304 232.84 57.0094C234.148 54.075 237.092 49.8157 234.741 46.658C232.563 43.7297 228.994 47.3525 227.668 49.3384C226.188 51.5568 225.369 54.0169 224.612 56.5443C224.489 56.9543 223.886 60.9015 222.594 60.1579C221.751 59.6714 221.957 58.1752 221.911 57.3949C221.809 55.6875 221.994 53.9618 222.064 52.2544C222.283 47.1567 222.138 42.0835 223.068 37.0409C223.618 34.0515 224.301 30.3705 222.661 27.5279C221.052 24.7374 218.391 25.2759 216.935 27.5983C215.363 30.1104 215.04 33.6965 214.338 36.6003C213.84 33.5282 213.554 30.3093 213.4 27.2281C213.292 25.0556 213.194 22.8923 212.784 20.7535C212.569 19.6397 212.129 19.297 211.104 18.8931C210.443 18.633 209.88 18.6483 209.344 19.1623C206.157 22.216 205.951 25.6369 204.951 29.6882C204.332 27.8125 203.452 26.408 201.468 26.6773C199.975 26.8792 197.791 27.8492 196.901 29.0823C196.089 30.2053 195.486 31.6403 195.548 33.0417C195.631 34.8807 195.791 36.5544 196.271 38.3383C196.806 40.3211 197.169 42.3742 197.591 44.3906C197.911 45.9205 198.535 47.276 198.621 48.861C198.664 49.626 198.954 52.1595 197.581 51.8474C196.972 51.7097 196.468 50.7153 196.123 50.241C195.603 49.5189 195.092 48.7478 194.64 47.9829C193.892 46.7222 193.098 44.9873 191.788 44.204C190.049 43.1606 189.323 46.1592 188.788 47.3189C187.763 49.5434 187.621 51.7587 188.584 54.0628C189.615 56.532 191.511 58.5209 193.298 60.5159C194.624 61.9938 195.941 63.5574 196.812 65.3168L195.218 61.1493C195.803 61.902 196.363 62.667 196.911 63.4534C197.304 64.0164 197.818 64.4111 198.268 64.9221C200.289 67.2231 200.169 69.5516 200.689 72.4799C201.249 75.6223 202.034 78.7464 203.428 81.6349C205.766 86.4817 209.649 90.3921 213.461 94.2016C213.834 94.5749 214.221 94.9574 214.708 95.1593C216.578 95.9365 221.384 95.5326 223.458 95.2328C226.221 94.8319 228.637 93.4427 229.646 90.7409C230.56 88.29 230.372 86.0533 229.972 83.5228C229.471 80.3498 228.954 77.2991 229.086 74.0618C229.191 71.6017 229.526 69.2089 230.034 66.7978Z" fill="white"/>
<path d="M231.603 46.4988C230.732 46.1255 229.686 46.4804 228.991 47.123C228.296 47.7655 227.88 48.6407 227.477 49.4944C226.256 52.0952 225.034 54.693 223.816 57.2939C222.597 59.8886 219.157 61.1278 219.286 57.1133C219.342 55.3998 219.988 53.8454 219.997 52.135C220.006 49.8309 219.637 47.5636 219.748 45.232C219.976 40.4832 220.831 35.7924 220.889 31.0252C220.911 29.327 220.76 27.4605 219.652 26.2335C216.849 23.1401 215.554 27.6808 214.985 29.6911C214.385 31.8085 214.179 34.0086 213.748 36.1902C213.594 36.9613 213.256 39.6539 212.252 39.4336C211.729 38.3413 211.696 36.9154 211.634 35.6578C211.551 33.981 211.56 32.2767 211.557 30.5999C211.551 27.9379 211.929 24.1437 210.489 21.7784C209.403 19.9946 207.406 19.9639 206.056 21.4633C204.646 23.0299 205.428 25.1809 205.526 27.0811C205.809 32.5674 207.046 37.9374 208.36 43.2554C208.936 45.59 209.529 47.9583 209.422 50.3603C207.985 49.8065 207.428 48.1174 207.046 46.6334C205.979 42.4782 204.911 38.3229 203.843 34.1707C203.348 32.243 202.625 28.7701 200.665 27.7084C198.692 26.6405 197.145 28.5376 196.409 30.2113C194.514 34.5257 196.292 40.5168 197.84 44.6415C198.942 47.5758 200.105 50.2104 200.542 53.2671C200.665 54.1269 204.323 59.6561 203.588 60.0814C202.803 60.5342 201.877 59.7968 201.292 59.1083C199.357 56.8227 197.637 54.3503 196.169 51.7433C195.126 49.8952 194.034 47.3647 192.129 46.2173C189.591 44.6843 189.585 48.0991 189.862 49.9197C190.296 52.7714 191.286 55.5314 192.754 57.967C193.991 60.0202 195.548 61.8255 196.868 63.8174C198.043 65.5952 198.766 67.581 199.416 69.5821C199.437 69.6525 200.514 70.0105 200.668 70.1268C200.997 70.3777 201.191 70.6867 201.416 71.0233C201.539 71.2069 201.662 71.3783 201.822 71.5343C202.105 71.8097 202.419 72.0239 202.677 72.3299C203.431 73.2264 204.114 74.2392 204.612 75.2979C205.437 77.0542 206.071 78.9054 206.899 80.6587C207.588 82.1152 208.754 83.3697 209.889 84.4927C211.016 85.6065 212.412 86.7417 213.816 87.4883C214.902 88.0696 216.019 88.6541 216.985 89.419C217.625 89.9269 218.379 90.2696 218.979 90.8112C219.532 91.313 219.88 91.4385 220.659 91.5119C221.44 91.5854 222.311 91.5793 223.062 91.3436C223.883 91.0866 224.572 90.3951 225.252 89.8902C226.871 88.6908 228.252 87.3383 228.794 85.3433C229.268 83.6053 229.157 81.7725 229.062 79.9733C228.997 78.7188 228.945 77.4612 228.908 76.2006C228.671 67.8839 229.2 59.4786 232.176 51.7433C232.526 50.8315 232.917 49.9044 232.936 48.9283C232.954 47.9461 232.505 46.8874 231.603 46.4988Z" fill="#FFD8D7"/>
<path d="M201.824 56.0791C200.581 51.9912 200.061 47.8022 199.277 43.6195C198.858 41.3827 198.261 39.2072 197.612 37.0286C196.923 34.7154 196.154 31.8146 197.504 29.5871C198.634 27.7236 201.292 26.5242 202.966 28.4182C204.197 29.8104 204.181 32.0135 204.467 33.7576C205.077 37.4692 205.846 41.1563 206.683 44.825C207.594 48.8181 208.581 52.7989 209.778 56.7186C210.021 57.5141 211.28 57.1745 211.034 56.3759C208.517 48.1541 206.714 39.6815 205.384 31.1966C205.101 29.3821 204.443 27.4513 202.689 26.5548C201.184 25.7868 199.437 26.1784 198.104 27.1086C193.941 30.0124 195.818 35.364 196.941 39.3173C198.538 44.9444 198.864 50.8223 200.569 56.4279C200.812 57.2174 202.067 56.8808 201.824 56.0791Z" fill="black"/>
<path d="M207.024 39.908C206.44 35.4437 206.329 30.9427 206.344 26.4447C206.354 24.1774 207.006 20.423 210.009 20.3679C213.215 20.3098 213.286 25.0464 213.243 27.1577C213.184 30.0829 212.775 33.0019 213.003 35.9271C213.151 37.8365 213.434 39.7397 213.671 41.6368C214.206 45.942 214.8 50.2471 215.154 54.5707C215.221 55.3938 216.523 55.403 216.455 54.5707C216.135 50.6235 215.606 46.6916 215.114 42.7597C214.874 40.8473 214.628 38.935 214.418 37.0195C214.132 34.4003 214.308 31.8117 214.458 29.1894C214.643 25.998 215.055 20.2914 210.917 19.1868C207.071 18.1587 205.148 22.8066 205.055 25.7777C204.908 30.4715 205.117 35.2479 205.726 39.9049C205.828 40.7219 207.132 40.7341 207.024 39.908Z" fill="black"/>
<path d="M214.868 41.2482C215.108 39.0665 215.655 36.8849 216.105 34.7369C216.548 32.6225 216.88 29.939 218.058 28.0787C219.378 25.998 222.169 26.1663 222.778 28.6019C223.154 30.0982 222.754 31.7229 222.517 33.2039C221.043 42.4201 220.354 51.7158 221.105 61.033C221.172 61.8592 222.474 61.8653 222.406 61.033C221.926 55.1092 221.991 49.1701 222.529 43.2554C222.8 40.2935 223.178 37.3408 223.634 34.4003C223.911 32.6195 224.388 30.7652 224.154 28.9507C223.692 25.3829 219.628 23.9571 217.28 26.9374C215.877 28.7151 215.489 31.42 215.021 33.5711C214.471 36.0985 213.846 38.6748 213.563 41.2482C213.474 42.0743 214.778 42.0682 214.868 41.2482Z" fill="black"/>
<path d="M214.175 95.453C213.763 95.0155 213.997 93.608 213.861 93.0021C213.618 91.9036 213.018 90.9276 212.341 90.0433C210.895 88.1523 209.098 86.5857 207.723 84.6304C204.624 80.2365 202.566 74.9399 201.169 69.7811C200.892 68.756 200.631 67.6912 200.163 66.7304C199.671 65.7176 198.8 65.0169 198.107 64.1449C196.298 61.8745 194.701 59.3348 193.114 56.9053C191.806 54.9042 190.431 52.8204 190.071 50.4123C189.877 49.1242 190.018 47.7931 190.818 46.7222C191.507 45.7981 192.652 45.2382 193.674 46.0521C194.157 46.4376 194.492 46.9945 194.824 47.5055C197.695 51.93 199.781 57.1409 204.581 59.8611C205.311 60.2742 205.966 59.1573 205.24 58.7443C200.071 55.813 198.751 50.0115 195.147 45.7216C193.726 44.0296 191.68 43.846 190.117 45.5074C188.704 47.0098 188.477 49.1731 188.871 51.11C189.394 53.6741 190.895 55.9078 192.32 58.0589C193.981 60.571 195.609 63.3615 197.637 65.5922C198.643 66.6998 199.224 67.6973 199.646 69.1385C200.089 70.6592 200.492 72.1708 201.018 73.667C202 76.4637 203.123 79.2237 204.514 81.846C205.969 84.5876 207.787 86.9406 209.904 89.1987C211.012 90.3829 212.258 91.7109 212.609 93.3448C212.834 94.3974 212.458 95.5142 213.258 96.3679C213.827 96.9799 214.747 96.0619 214.175 95.453Z" fill="black"/>
<path d="M221.486 59.4236C222.071 60.6444 224.049 60.6047 224.782 59.5613C225.154 59.0288 225.191 58.3526 225.28 57.7315C225.474 56.3882 225.895 55.0633 226.4 53.8027C227.228 51.7373 228.443 48.6162 230.511 47.4811C232.228 46.5386 233.778 47.6187 233.437 49.5403C233.215 50.7887 232.582 51.9576 232.012 53.0775C230.895 55.2714 230.157 57.2786 229.874 59.7387C229.538 62.6517 229.545 65.5922 229.258 68.5113C229.092 70.1972 228.849 71.8771 228.542 73.5447C228.338 74.6523 227.96 75.7998 227.957 76.9288C227.948 79.8204 228.985 82.3141 229.883 85.0037C230.145 85.7901 231.403 85.4535 231.138 84.661C230.142 81.6716 228.88 78.8259 229.458 75.607C229.988 72.6604 230.502 69.7505 230.705 66.758C230.911 63.7685 230.812 60.6291 231.489 57.6947C232.058 55.2316 233.658 53.1846 234.437 50.7979C234.96 49.1945 235.031 47.2026 233.382 46.2173C231.951 45.3636 230.2 45.9603 229.018 46.9548C227.295 48.4051 226.298 50.7795 225.422 52.7929C224.889 54.0168 224.412 55.3264 224.142 56.633C224.065 57.0002 224.034 57.3643 223.978 57.7315C223.954 58.0007 223.905 58.2639 223.834 58.524C223.246 59.0962 222.837 59.1757 222.609 58.7687C222.252 58.0191 221.129 58.677 221.486 59.4236Z" fill="black"/>
<path d="M223.058 32.6224C222.107 32.4909 221.566 31.6005 221.532 30.6887C221.495 29.6269 222.292 28.9445 223.16 28.4886C223.901 28.1 223.243 26.9832 222.504 27.3718C221.138 28.0878 220.095 29.3209 220.249 30.9365C220.381 32.2951 221.277 33.675 222.71 33.8739C223.532 33.9841 223.886 32.7387 223.058 32.6224Z" fill="black"/>
<path d="M202.738 27.3015C200.43 27.4177 199.621 29.5841 199.781 31.6158C199.966 33.9658 202.027 34.8531 204.147 34.7888C204.984 34.7644 204.987 33.4701 204.147 33.4945C202.769 33.5374 201.28 33.2222 201.083 31.6158C200.935 30.398 201.215 28.6723 202.738 28.5958C203.572 28.5529 203.578 27.2586 202.738 27.3015Z" fill="black"/>
<path d="M193.083 46.202C192.354 47.2332 191.831 48.8152 192.671 49.9626C193.581 51.2079 195.243 51.2538 196.627 50.9999C196.926 50.9448 197.08 50.6449 197.104 50.3757C197.107 50.342 197.111 50.3114 197.114 50.2777C197.191 49.4485 195.889 49.4546 195.812 50.2777C195.809 50.3114 195.806 50.342 195.803 50.3757C195.963 50.1676 196.123 49.9595 196.28 49.7515C195.474 49.8983 194.187 49.9779 193.704 49.1548C193.264 48.4082 193.772 47.4627 194.203 46.8507C194.689 46.1745 193.56 45.5258 193.083 46.202Z" fill="black"/>
<path d="M231.978 52.9336C231.375 52.3767 230.809 51.4832 231.049 50.6234C231.332 49.6106 232.249 49.3658 233.185 49.4056C234.021 49.4393 234.021 48.145 233.185 48.1113C231.76 48.0532 230.449 48.6039 229.895 49.9992C229.351 51.367 230.028 52.8999 231.055 53.8485C231.671 54.4146 232.594 53.5027 231.978 52.9336Z" fill="black"/>
<path d="M184.311 49.8647C184.252 48.9804 184.129 48.09 184.268 47.2057C184.394 46.4193 184.828 46.0093 185.163 45.3453C185.536 44.6018 184.412 43.947 184.04 44.6936C183.88 45.0148 183.597 45.2413 183.419 45.5534C183.203 45.9328 183.096 46.3826 183.022 46.8049C182.837 47.833 182.942 48.8335 183.009 49.8677C183.065 50.6908 184.366 50.697 184.311 49.8647Z" fill="black"/>
<path d="M179.76 50.6571C179.332 48.1511 179.388 45.1617 181.074 43.0535C181.591 42.4078 180.674 41.4868 180.154 42.1386C178.141 44.6507 177.988 47.9737 178.505 50.9998C178.643 51.8199 179.898 51.4741 179.76 50.6571Z" fill="black"/>
<path d="M224.077 19.5111C225.861 20.0527 227.292 21.3623 228 23.0819C228.314 23.8408 229.572 23.5103 229.255 22.7392C228.366 20.5821 226.68 18.9512 224.421 18.2658C223.618 18.021 223.277 19.2694 224.077 19.5111Z" fill="black"/>
<path d="M226.514 14.5236C229.902 14.9459 232.237 18.5687 233.56 21.3776C233.914 22.1303 235.037 21.4755 234.683 20.7228C233.123 17.409 230.437 13.7127 226.514 13.2262C225.686 13.1283 225.692 14.4226 226.514 14.5236Z" fill="black"/>
<path d="M228.661 16.843C229.227 16.0413 229.981 15.3988 230.806 14.8725C231.507 14.4257 230.858 13.3028 230.147 13.7556C229.126 14.4074 228.237 15.2029 227.535 16.1913C227.052 16.8705 228.181 17.5192 228.661 16.843Z" fill="black"/>
<path d="M230.649 19.352C232.021 18.9542 233.114 17.9781 234.468 17.5528C235.264 17.305 234.923 16.0535 234.123 16.3044C232.763 16.7297 231.668 17.7058 230.304 18.1036C229.501 18.3362 229.843 19.5876 230.649 19.352Z" fill="black"/>
<path d="M206.317 99.6389C206.643 100.838 207.016 102.016 207.474 103.173C207.779 103.938 209.037 103.604 208.729 102.83C208.271 101.674 207.899 100.496 207.572 99.2962C207.354 98.4915 206.096 98.8311 206.317 99.6389Z" fill="black"/>
<path d="M202.658 98.8769C203.108 100.266 203.461 101.68 203.877 103.078C204.311 104.531 204.846 105.936 205.04 107.447C205.145 108.261 206.446 108.274 206.341 107.447C205.96 104.455 204.843 101.401 203.914 98.5311C203.655 97.7417 202.4 98.0783 202.658 98.8769Z" fill="black"/>
<path d="M315.08 88.2012C313.52 83.8196 312.043 79.4012 310.705 74.946C310.092 75.5611 309.508 76.2067 308.969 76.9135C306.443 80.2273 304.458 83.997 303.477 88.0544C301.652 95.5968 304.563 102.91 306.074 110.192C306.908 114.207 307.748 118.549 307.581 122.643C307.508 124.466 306.889 126.406 307.348 128.19C308.883 134.16 306.858 141.384 303.84 146.607C301.843 150.062 298.975 153.223 295.203 154.569C290.88 156.111 285.941 155.022 282.028 152.635C278.114 150.248 275.068 146.696 272.311 143.043C264.655 132.902 260.948 120.449 253.132 110.875C251.941 109.415 250.812 107.916 249.489 106.563C248.575 105.63 247.594 104.764 246.674 103.84C243.252 100.413 240.188 96.5209 237.606 92.4483C236.628 90.9031 235.837 89.214 234.963 87.6107C234.391 86.5612 233.825 85.5086 233.228 84.4713C232.28 82.822 231.551 84.2173 230.406 84.8721C228.941 85.7105 227.394 86.4051 225.908 87.2037C223.791 88.342 221.72 89.5629 219.652 90.7868C217.723 91.9312 215.458 92.9226 213.717 94.3331C212.249 95.5203 212.575 97.9866 213.138 99.5746C213.486 100.557 213.858 101.533 214.172 102.533C215.665 107.313 217.671 111.979 219.901 116.462C224.046 124.794 228.954 132.801 234.446 140.325C238.037 145.249 243.951 146.28 246.649 152.023C247.178 153.146 247.612 154.309 248.012 155.487C248.997 158.378 249.785 161.349 251.289 164.005C253.935 168.678 258.517 171.894 262.948 174.947C267.889 178.377 273.037 183.839 278.766 185.611C285.692 187.753 293.501 187.358 300.194 184.607C308.489 181.199 313.877 174.724 317.772 166.921C322.151 158.149 319.357 147.029 321.769 137.455C323.092 132.205 325.44 127.349 328.126 122.621C323.594 111.22 319.2 99.7674 315.08 88.2012Z" fill="black"/>
<path d="M212.181 21.5703C209.972 22.1058 208.892 23.3267 208.821 25.6307C208.757 27.8124 210.824 28.8344 212.787 28.7732C213.624 28.7487 213.627 27.4544 212.787 27.4789C211.277 27.5248 210.006 26.9067 210.154 25.2819C210.295 23.7367 211.071 23.1676 212.526 22.8157C213.341 22.6229 212.997 21.3745 212.181 21.5703Z" fill="black"/>
<path d="M204.092 158.25C195.092 153.363 190.212 143.498 181.791 137.838C177.141 134.714 171.643 133.058 166.123 132.064C159.751 130.916 153.138 130.607 146.831 132.067C135.028 134.793 126.769 142.143 114.206 142.822C100.978 143.538 87.9506 140.062 74.9259 138.398C60.0213 136.494 44.769 137.305 30.1536 140.772C25.1721 141.953 20.5167 143.933 15.8059 145.867C14.7044 146.32 13.7721 146.855 13.009 147.785C11.7567 149.315 10.9352 151.185 9.75978 152.782C8.41517 154.609 6.92286 156.322 5.55055 158.127C4.45209 159.572 3.53517 161.114 2.57825 162.65C1.87363 163.782 1.07363 164.871 0.747473 166.184C0.329011 167.855 -0.378679 169.58 -0.0679098 171.337C1.34132 171.921 2.92901 172.187 4.42748 172.408C6.83055 172.76 9.09825 173.39 11.4552 173.977C15.1629 174.898 19.0767 175.21 22.8859 175.189C23.8952 175.183 25.2244 175.523 25.9198 174.758C27.4152 173.118 27.5229 170.351 28.5444 168.408C29.4336 166.719 30.5229 164.871 32.0736 163.69C33.3229 162.735 34.8859 162.243 36.3106 161.616C38.9259 160.468 41.4859 159.232 44.1629 158.219C46.1259 157.476 48.1167 156.809 50.1321 156.221C53.1936 155.328 56.2706 154.979 59.446 154.804C62.7813 154.621 66.1013 154.269 69.446 154.232C74.926 154.174 80.3875 154.18 85.7783 155.27C90.3567 156.194 94.6644 158.06 99.2244 158.999C101.117 159.388 102.892 159.948 104.683 160.67C106.815 161.53 109.058 162.026 111.267 162.641C114.492 163.534 117.646 164.724 120.948 165.321C124.803 166.019 129.037 166.016 132.603 164.272C135.548 162.83 138.264 161.065 141.489 160.266C144.298 159.572 147.197 159.131 150.095 159.128C155.012 159.122 160.147 160.823 164.366 163.302C165.184 163.782 165.947 164.336 166.606 165.021C167.815 166.279 168.717 167.766 170.006 168.962C173.957 172.64 179.012 175.556 184.098 177.349C184.671 177.551 185.246 177.738 185.827 177.912C190.449 179.283 195.261 179.592 200.061 179.448C202.932 179.363 205.763 178.916 208.578 178.374C211.508 177.811 214.474 177.227 217.228 176.067C219.418 175.143 221.548 174.032 223.243 172.353C223.92 171.682 224.695 171.119 224.951 170.205C225.344 168.788 225.877 166.343 224.471 165.297C223.874 164.853 223.009 164.764 222.304 164.614C220.988 164.336 219.677 164.042 218.372 163.705C213.428 162.436 208.581 160.688 204.092 158.25Z" fill="black"/>
</g>
<defs>
<clipPath id="clip0_173_61">
<rect width="286" height="161" fill="white"/>
</clipPath>
</defs>
</svg>
