<svg width="264" height="189" viewBox="0 0 264 189" fill="none" xmlns="http://www.w3.org/2000/svg">
<g clip-path="url(#clip0_879_1169)">
<path d="M156.258 118.124C155.433 117.439 154.209 117.486 154.065 116.304C153.934 115.214 154.807 113.337 155.043 112.231C155.292 111.055 156.079 109.289 155.2 108.154C154.522 107.279 152.888 107.819 152.169 108.306C151.079 109.045 150.257 110.205 149.509 111.257C148.768 112.3 147.968 113.286 147.112 114.237C145.81 115.688 144.026 116.841 144.778 113.978C145.318 111.918 146.2 109.949 146.932 107.955C147.975 105.124 148.815 102.096 148.32 99.1225C148.262 98.7717 148.176 98.4052 147.93 98.1492C147.652 97.8585 147.23 97.7637 146.837 97.6815C145.516 97.4097 144.017 97.1727 142.924 97.9533C142.406 98.323 142.057 98.876 141.747 99.4291C140.2 102.188 140.225 104.729 139.439 107.69C139.215 108.54 138.991 109.51 138.365 110.148C137.418 110.091 137.47 108.179 137.434 107.62C137.271 105.038 136.91 102.678 136.878 100.127C136.865 99.0688 136.504 97.8901 135.551 97.4097C134.618 96.9357 133.416 97.3339 132.706 98.0986C131.996 98.8634 131.69 99.9094 131.517 100.933C130.804 105.098 131.897 109.295 131.501 113.473C131.354 115.037 130.916 118.301 129.439 115.621C128.547 114 128.31 112.152 127.128 110.66C126.066 109.323 125.452 107.304 123.911 106.394C123.4 106.091 122.748 106.072 122.083 106.23V106.207C122.064 106.217 122.044 106.233 122.025 106.242C120.737 106.565 119.407 107.541 118.902 108.464C118.416 109.355 118.47 110.448 118.758 111.419C119.046 112.389 119.548 113.283 119.934 114.218C121.315 117.552 121.226 121.281 121.117 124.884L121.594 115.685C123 122.365 124.19 131.921 117.693 135.71L118.397 138.159C120.088 140.615 120.938 143.658 123.298 145.592C124.337 146.442 125.069 146.524 126.338 146.177C127.223 145.933 128.083 145.586 128.934 145.244C130.091 144.78 131.117 144.072 132.207 143.478C133.278 142.896 134.394 142.397 135.475 141.831C138.403 140.296 141.453 138.864 144.116 136.898C147.703 134.253 150.743 131.195 153.563 127.772C155.145 125.851 156.367 123.952 156.84 121.537C156.875 121.351 156.907 121.161 156.936 120.968C157.083 119.957 157.048 118.778 156.258 118.124Z" fill="white"/>
<path d="M156.398 119.78C155.806 119.802 155.113 120.466 154.62 120.769C153.882 121.224 153.38 121.866 152.747 122.441C152.271 122.877 151.58 123.613 150.915 123.737C149.214 124.05 150.506 121.386 150.829 120.845C151.73 119.328 152.728 117.872 153.572 116.333C153.565 116.307 153.559 116.279 153.553 116.254C153.239 115.71 153.028 114.762 153.281 114.155C153.866 112.74 154.307 111.267 154.56 109.756C154.566 109.718 154.582 109.643 154.601 109.567C154.62 109.431 154.627 109.289 154.64 109.156C154.675 108.777 154.7 108.398 154.713 108.018C154.719 107.778 154.723 107.538 154.719 107.298C153.936 107.07 152.846 107.478 152.296 107.848C151.206 108.587 150.384 109.747 149.636 110.799C147.664 113.577 146.126 116.645 143.22 118.636C143.521 118.431 143.939 116.295 143.949 115.9C143.968 115.157 143.764 114.765 143.991 113.969C144.355 112.692 144.739 111.419 145.004 110.117C145.496 107.709 145.899 105.282 145.902 102.823C145.906 101.139 145.752 99.1668 145.186 97.5773C144.707 96.2279 143.76 96.86 142.9 97.5615C141.139 99.0025 140.739 101.692 140.32 103.777C140.09 104.925 139.87 106.097 139.569 107.228C139.345 108.078 139.122 109.049 138.495 109.687C137.549 109.63 137.6 107.718 137.565 107.159C137.462 105.576 137.571 104.024 137.309 102.45C137.127 101.36 137.251 98.3326 135.758 98.0134C134.905 97.8301 134.441 98.7718 134.045 99.3343C133.364 100.304 133.23 101.11 133.143 102.27C132.996 104.264 132.872 106.34 132.955 108.337C133.028 110.028 133.143 111.466 132.597 113.109C131.948 115.059 131.19 116.971 130.436 118.883C130.269 119.3 129.851 119.806 129.477 119.55C129.349 119.461 129.288 119.303 129.237 119.158C127.964 115.476 127.331 111.469 125.033 108.312C124.649 107.784 124.208 107.276 123.629 106.963C122.012 106.091 120.199 107.658 120.324 109.349C120.394 110.29 120.5 111.254 120.698 112.18C120.915 113.188 121.363 114.168 121.73 115.135C122.507 117.195 123.179 119.379 123.393 121.578C123.498 122.65 123.591 123.718 123.671 124.789C123.709 125.314 123.623 125.838 123.68 126.36C123.716 126.691 123.844 127.03 123.837 127.368C123.821 128.12 123.399 128.771 123.108 129.431C122.677 130.408 122.261 131.1 121.596 131.95C120.544 133.296 119.301 134.386 117.83 135.243L118.533 137.692C120.225 140.147 121.075 143.19 123.434 145.124C124.473 145.974 125.205 146.057 126.475 145.709C127.36 145.466 128.22 145.118 129.07 144.777C130.228 144.312 131.254 143.604 132.344 143.01C133.415 142.429 134.531 141.929 135.611 141.364C138.54 139.828 141.59 138.396 144.253 136.431C147.84 133.786 150.88 130.727 153.7 127.304C155.273 125.396 156.676 123.512 157.012 121.035C157.072 120.498 157.175 119.752 156.398 119.78ZM139.259 136.02C138.888 136.007 138.521 136.023 138.153 136.049C138.147 136.049 138.143 136.052 138.137 136.052C137.971 136.09 137.805 136.121 137.638 136.165C137.562 136.184 137.325 136.304 137.203 136.32C137.184 136.33 137.165 136.339 137.143 136.352C137.124 136.361 137.085 136.387 137.04 136.412C136.954 136.491 136.813 136.608 136.778 136.646C135.707 137.774 133.888 137.606 132.814 136.617C131.676 135.568 131.842 133.754 132.843 132.699C134.438 131.018 136.964 130.401 139.227 130.48C140.8 130.534 141.97 131.691 142.047 133.239C142.12 134.687 140.726 136.071 139.259 136.02Z" fill="#FFD8D7"/>
<path d="M129.628 119.483C131.108 116.389 131.891 113.106 132.093 109.693C132.198 107.911 132.157 106.122 132.038 104.34C131.926 102.643 131.137 99.9821 132.62 98.7086C134.311 97.2549 136.284 98.3262 136.914 100.21C137.486 101.922 137.502 103.872 137.454 105.661C137.348 109.447 136.552 113.172 136.105 116.923C136.025 117.587 137.08 117.581 137.157 116.923C137.7 112.354 138.797 107.762 138.458 103.136C138.266 100.529 137.492 96.6166 134.014 97.0211C130.085 97.4762 130.807 101.54 130.99 104.343C131.319 109.361 130.923 114.361 128.72 118.962C128.432 119.559 129.337 120.087 129.628 119.483Z" fill="black"/>
<path d="M137.09 117.186C139.391 113.722 140.788 109.421 141.786 105.427C142.336 103.234 142.125 95.7476 146.067 97.2265C148.746 98.2346 147.729 103.509 147.23 105.531C145.932 110.783 143.768 115.947 141.396 120.804C141.099 121.411 142.016 121.945 142.317 121.335C144.468 116.93 146.322 112.351 147.735 107.661C148.538 104.994 149.177 102.071 148.615 99.2901C148.148 96.9832 146.226 95.3083 143.778 96.3448C141.115 97.4698 141.521 101.591 141.047 103.891C140.155 108.221 138.637 112.939 136.169 116.652C135.792 117.224 136.716 117.751 137.09 117.186Z" fill="black"/>
<path d="M142.405 121.341C144.397 119.012 146.548 116.781 148.265 114.237C149.122 112.967 149.867 111.63 150.647 110.312C151.376 109.077 153.499 105.098 155.234 107.601C157.063 110.237 153.566 114.696 152.105 116.791C150.215 119.502 148.022 121.986 145.612 124.255C145.167 124.675 145.842 125.339 146.286 124.922C149.224 122.157 151.839 119.06 153.997 115.663C155.493 113.305 157.997 109.282 155.724 106.593C153.575 104.049 150.919 107.996 149.966 109.592C148.889 111.403 147.875 113.255 146.6 114.942C145.091 116.942 143.358 118.772 141.731 120.678C141.337 121.136 142.009 121.803 142.405 121.341Z" fill="black"/>
<path d="M145.139 125.228C148.947 126.104 151.041 122.593 153.087 120.071C153.352 119.745 153.63 119.328 153.966 119.069C154.266 118.633 154.692 118.589 155.238 118.933C156.037 118.772 156.463 119.076 156.514 119.84C156.965 121.698 155.67 123.512 154.58 124.89C153.08 126.786 151.565 128.682 149.986 130.512C146.539 134.503 142.681 138.333 138.103 141.048C135.954 142.321 133.525 142.808 131.36 143.987C130.398 144.511 129.666 145.282 128.835 145.978C127.738 146.894 126.507 147.627 125.468 148.61C124.979 149.074 125.724 149.808 126.213 149.346C127.054 148.55 128.029 147.94 128.94 147.232C129.928 146.461 130.788 145.494 131.894 144.884C133.822 143.822 136.037 143.408 137.981 142.321C141.849 140.16 145.222 137.167 148.256 133.982C149.81 132.351 151.284 130.645 152.693 128.891C153.998 127.273 155.497 125.686 156.568 123.904C157.441 122.454 158.071 120.564 157.316 118.93C156.795 117.796 155.567 116.949 154.308 117.508C150.926 119.012 150.085 125.295 145.42 124.22C144.762 124.075 144.481 125.077 145.139 125.228Z" fill="black"/>
<path d="M128.995 94.4551C129.765 92.7328 131.287 91.9491 133.17 91.9365C134.273 91.9301 135.376 92.3978 136.469 92.1387C137.627 91.8638 138.48 90.9726 139.65 90.6629C141.489 90.1763 143.65 90.644 144.216 92.6949C144.395 93.349 145.424 93.071 145.242 92.4136C144.238 88.7827 140.056 88.9944 137.374 90.5176C136.198 91.1844 135.661 91.1401 134.321 90.96C133.56 90.8557 132.723 90.8178 131.962 90.96C130.152 91.2981 128.822 92.2462 128.074 93.9179C127.799 94.5404 128.717 95.0745 128.995 94.4551Z" fill="black"/>
<path d="M129.157 89.3578C130.67 88.2707 132.22 87.8093 134.084 87.7904C134.768 87.7841 134.771 86.7317 134.084 86.7381C132.051 86.7602 130.276 87.2595 128.62 88.4509C128.07 88.8427 128.601 89.756 129.157 89.3578Z" fill="black"/>
<path d="M159.933 106.492C160.276 107.121 160.359 107.81 160.451 108.508C160.538 109.162 161.589 109.172 161.503 108.508C161.385 107.62 161.279 106.767 160.841 105.967C160.522 105.376 159.611 105.901 159.933 106.492Z" fill="black"/>
<path d="M161.51 103.199C163.022 105.62 163.444 108.025 163.357 110.84C163.338 111.51 164.39 111.51 164.409 110.84C164.502 107.844 164.022 105.244 162.418 102.675C162.063 102.106 161.152 102.627 161.51 103.199Z" fill="black"/>
<path d="M162.898 106.369C163.067 106.148 163.329 106.034 163.575 105.917C163.863 105.778 164.125 105.563 164.435 105.474C165.084 105.291 164.809 104.286 164.157 104.473C163.722 104.596 163.352 104.871 162.949 105.067C162.556 105.256 162.255 105.5 161.993 105.844C161.82 106.072 161.958 106.422 162.181 106.555C162.444 106.713 162.728 106.593 162.898 106.369Z" fill="black"/>
<path d="M119.211 135.707C119.77 133.767 121.769 132.62 122.542 130.762C123.236 129.096 123.293 127.248 123.153 125.475C122.836 121.521 122.136 117.258 120.602 113.583C120.224 112.679 119.758 111.801 119.534 110.843C119.163 109.248 120.368 107.257 122.226 107.86C124.719 108.669 125.4 111.912 125.88 114.095C126.283 115.922 126.794 117.578 128.031 119.028C129.78 121.082 131.848 122.618 132.104 125.519C132.162 126.179 133.217 126.186 133.156 125.519C132.948 123.177 131.746 121.367 130.135 119.714C128.99 118.535 127.951 117.454 127.414 115.868C127.018 114.702 126.858 113.473 126.551 112.284C126.036 110.297 124.985 108.044 123.019 107.073C121.478 106.315 119.684 106.909 118.802 108.369C117.836 109.962 118.693 111.801 119.348 113.327C120.464 115.934 121.113 118.737 121.57 121.525C121.986 124.062 122.542 126.843 121.896 129.384C121.283 131.792 118.872 133.081 118.194 135.432C118.009 136.074 119.026 136.349 119.211 135.707Z" fill="black"/>
<path d="M135.394 117.192C136.852 117.862 138.355 119.009 139.474 120.125C140.33 120.981 141.203 122.239 142.239 122.868C142.818 123.218 143.345 122.321 142.77 121.97C142.255 121.657 141.814 120.994 141.385 120.567C140.768 119.954 140.183 119.303 139.531 118.725C138.502 117.815 137.181 116.863 135.928 116.291C135.314 116.013 134.777 116.911 135.394 117.192Z" fill="black"/>
<path d="M25.5097 -21.4104C19.5539 -10.8367 26.926 3.38066 21.3441 14.1566C19.6146 17.4969 16.7949 20.1356 14.5443 23.1566C4.80323 36.2269 6.94198 54.9253 14.3908 69.3954C16.3665 73.2349 18.6907 76.9418 20.011 81.0499C26.1268 100.102 9.28533 119.262 9.66576 139.247C10.2732 171.208 50.3723 192.81 79.442 189.053C84.5858 188.386 90.6824 186.879 95.0078 184.028C100.558 180.372 104.963 173.941 109.653 169.28C110.305 168.632 111.04 168.023 111.638 167.324C112.303 166.547 112.943 165.817 113.656 165.074C115.887 162.751 118.166 160.476 120.343 158.1C121.494 156.845 122.569 155.524 123.703 154.254C124.675 153.167 125.769 152.209 126.881 151.261C127.569 150.673 128.227 149.997 128.985 149.52C129.186 149.394 129.266 149.406 129.205 149.141C129.036 148.875 128.867 148.613 128.697 148.351C128.544 148.066 128.39 147.782 128.237 147.498C127.802 146.663 127.437 145.797 126.948 144.992C126.14 143.661 124.998 142.539 123.876 141.471C123.735 141.339 123.595 141.206 123.451 141.073C122.629 140.311 121.747 139.528 121.076 138.665C120.797 138.308 120.596 137.954 120.478 137.521C120.264 136.75 119.88 136.093 119.506 135.375C118.521 133.486 117.965 133.612 116.293 134.8C115.206 135.571 114.106 136.327 112.994 137.06C108.358 140.119 103.489 142.849 98.387 145.083C71.6766 156.782 37.5941 137.18 45.7207 105.771C48.7834 93.94 58.0673 83.4453 57.0826 71.2694C56.1491 59.7413 46.066 50.2641 45.8135 38.7012C45.5097 24.7936 59.5603 12.5576 56.4145 -0.999252C55.043 -6.90866 50.0206 -10.587 48.112 -16.0193C46.5871 -20.3644 48.5468 -26.6214 43.6715 -29.2096C37.7572 -32.3507 28.2719 -26.3118 25.5097 -21.4104Z" fill="black"/>
<path d="M86.7521 -13.6618C82.075 -21.5715 65.7515 -18.2028 69.575 -7.30678C71.3621 -2.21268 74.5047 1.77855 77.1038 6.38283C79.6965 10.9776 81.8288 15.3544 85.5021 19.2919C94.3352 28.7627 102.577 38.8309 116.768 39.5356C126.228 40.0064 135.815 36.1037 142.203 29.1894C150.914 19.7596 156.733 15.484 170.16 14.4727C190.755 12.9179 198.29 34.8396 217.526 36.2712C225.742 36.8811 234.028 34.5268 241.113 30.3681C245.953 27.5271 250.422 23.675 252.654 18.5651C255.719 11.5433 254.54 2.43269 260.211 -2.76886C261.755 -4.18459 263.888 -5.49287 263.929 -7.57539C255.15 -6.8928 245.585 -7.18986 236.957 -5.66036C229.533 -4.34259 227.836 0.413374 223.613 6.57559C221.471 9.67566 218.43 12.5482 214.652 12.9337C212.759 13.1265 210.863 12.6746 209.038 12.1532C201.426 9.98536 195.013 6.53451 188.52 2.2178C175.122 -6.69372 147.241 -1.92827 133.993 4.9671C129.559 7.27714 125.429 10.2287 120.691 11.8467C103.705 17.6486 91.3141 5.67496 87.9637 -9.86331C87.6824 -11.1653 87.433 -12.5083 86.7521 -13.6618Z" fill="black"/>
</g>
<defs>
<clipPath id="clip0_879_1169">
<rect width="264" height="189" fill="white"/>
</clipPath>
</defs>
</svg>
