<svg width="133" height="168" viewBox="0 0 133 168" fill="none" xmlns="http://www.w3.org/2000/svg">
<g clip-path="url(#clip0_1009_1676)">
<path d="M36.9512 78.3067L37.8339 80.6102C37.6197 79.8069 37.3168 79.044 36.9512 78.3067Z" fill="white"/>
<path d="M76.8219 80.0747C77.6603 76.0912 78.5208 72.0821 80.1902 68.3408C81.7599 64.8232 85.2944 59.7173 82.4727 55.932C79.8578 52.4217 75.5735 56.7646 73.9817 59.1451C72.2052 61.8044 71.2227 64.7535 70.3142 67.7832C70.1664 68.2748 69.4425 73.0065 67.8913 72.1151C66.8793 71.5319 67.1268 69.7383 67.0714 68.8029C66.9495 66.7562 67.1711 64.6875 67.2561 62.6407C67.5183 56.5298 67.3447 50.4483 68.4601 44.4034C69.1212 40.8198 69.9412 36.4072 67.9726 32.9997C66.041 29.6544 62.8462 30.3 61.0992 33.084C59.2119 36.0954 58.8241 40.3943 57.982 43.8752C57.3837 40.1926 57.0402 36.3339 56.8556 32.6402C56.7263 30.0359 56.6081 27.4426 56.1169 24.8787C55.8583 23.5436 55.3302 23.1327 54.1003 22.6486C53.3063 22.3368 52.6304 22.3551 51.9877 22.9713C48.1614 26.632 47.9139 30.7328 46.7136 35.5893C45.9712 33.3408 44.9149 31.6572 42.5327 31.9799C40.7414 32.222 38.1191 33.3848 37.0518 34.863C36.0767 36.2092 35.3528 37.9294 35.4267 39.6094C35.5264 41.8139 35.7185 43.8202 36.2946 45.9587C36.9373 48.3355 37.3731 50.7968 37.8791 53.214C38.2632 55.048 39.0129 56.6729 39.1164 58.5729C39.1681 59.4899 39.5152 62.527 37.868 62.1529C37.1367 61.9878 36.531 60.7957 36.1173 60.2272C35.4932 59.3615 34.8801 58.4372 34.3371 57.5202C33.4397 56.009 32.4868 53.9292 30.9134 52.9902C28.8266 51.7394 27.955 55.3341 27.3124 56.7242C26.0825 59.3909 25.9126 62.0465 27.0686 64.8085C28.3059 67.7686 30.581 70.1528 32.7268 72.5443C34.3187 74.3159 35.8994 76.1903 36.9447 78.2994L35.0315 73.3036C35.7332 74.2059 36.4054 75.1229 37.0628 76.0656C37.5356 76.7405 38.1524 77.2137 38.6916 77.8262C41.1181 80.5845 40.9741 83.3759 41.5983 86.8861C42.2705 90.6532 43.2123 94.3982 44.8854 97.8608C47.6923 103.671 52.3534 108.359 56.9294 112.925C57.3763 113.373 57.8417 113.831 58.4252 114.073C60.6708 115.005 66.4398 114.521 68.9292 114.161C72.2458 113.681 75.1451 112.016 76.3565 108.777C77.4534 105.839 77.2281 103.157 76.748 100.124C76.146 96.3202 75.5255 92.6633 75.6843 88.7825C75.8099 85.8334 76.2125 82.9651 76.8219 80.0747Z" fill="white"/>
<path d="M78.7066 55.742C77.6614 55.2945 76.4056 55.72 75.5709 56.4903C74.7362 57.2605 74.2376 58.3096 73.7538 59.3329C72.2875 62.4507 70.8213 65.5649 69.3587 68.6827C67.8961 71.7931 63.7669 73.2787 63.922 68.4663C63.9885 66.4122 64.7641 64.5488 64.7752 62.4984C64.7863 59.7364 64.3431 57.0184 64.476 54.2234C64.7494 48.5307 65.7761 42.9077 65.8463 37.1929C65.8721 35.1572 65.6912 32.9197 64.3616 31.4489C60.9969 27.7405 59.442 33.1838 58.7587 35.5937C58.0385 38.132 57.7911 40.7692 57.274 43.3845C57.0893 44.3089 56.6831 47.5367 55.479 47.2726C54.8512 45.9631 54.8105 44.2538 54.7367 42.7463C54.6369 40.7362 54.648 38.6931 54.6443 36.6831C54.6369 33.4919 55.0912 28.9436 53.3627 26.1083C52.059 23.9698 49.662 23.9331 48.0406 25.7305C46.349 27.6085 47.2872 30.1871 47.4053 32.4649C47.7451 39.0416 49.2298 45.4789 50.8069 51.8539C51.4976 54.6526 52.2104 57.4916 52.0811 60.371C50.3563 59.7071 49.6878 57.6824 49.2299 55.9034C47.9483 50.9222 46.6667 45.9411 45.3851 40.9636C44.7904 38.6528 43.9225 34.4896 41.5698 33.2168C39.2024 31.9367 37.3446 34.2109 36.4619 36.2173C34.1868 41.3891 36.3215 48.5711 38.1793 53.5155C39.5015 57.0331 40.8976 60.1913 41.4221 63.8556C41.5698 64.8863 45.9612 71.5144 45.0785 72.0242C44.1367 72.5671 43.025 71.6831 42.3233 70.8578C40.0001 68.1178 37.9355 65.1541 36.1738 62.0289C34.9218 59.8135 33.6106 56.78 31.3244 55.4045C28.2774 53.5669 28.27 57.6603 28.6024 59.8428C29.1232 63.2614 30.3125 66.5699 32.0742 69.4896C33.5589 71.9508 35.4278 74.115 37.0122 76.5028C38.4231 78.6339 39.291 81.0145 40.0703 83.4133C40.0962 83.4977 41.3888 83.9268 41.5735 84.0662C41.9687 84.367 42.2014 84.7375 42.471 85.1409C42.6187 85.361 42.7665 85.5665 42.9585 85.7535C43.2983 86.0836 43.675 86.3404 43.9853 86.7072C44.8902 87.7819 45.7101 88.996 46.3084 90.2651C47.2982 92.3706 48.059 94.5897 49.0526 96.6915C49.8799 98.4374 51.2797 99.9413 52.6425 101.287C53.9943 102.623 55.6711 103.983 57.3553 104.878C58.659 105.575 59.9997 106.276 61.1594 107.193C61.9276 107.802 62.8325 108.213 63.5527 108.862C64.2175 109.463 64.6349 109.614 65.5693 109.702C66.5074 109.79 67.5526 109.783 68.4538 109.5C69.4399 109.192 70.2672 108.363 71.0835 107.758C73.0262 106.32 74.6845 104.699 75.3345 102.307C75.9033 100.224 75.7704 98.0266 75.6559 95.8698C75.5783 94.366 75.5155 92.8584 75.4712 91.3472C75.1868 81.3776 75.8221 71.3016 79.3935 62.0289C79.8146 60.9359 80.2836 59.8245 80.3058 58.6544C80.328 57.477 79.7887 56.2078 78.7066 55.742Z" fill="#FFD8D7"/>
<path d="M42.9615 67.2254C41.4694 62.3249 40.8452 57.3035 39.9034 52.2893C39.4011 49.608 38.6846 47.0001 37.9053 44.3885C37.078 41.6154 36.1547 38.1382 37.776 35.4679C39.1315 33.2341 42.3226 31.7962 44.3318 34.0667C45.8091 35.7356 45.7906 38.3766 46.1341 40.4674C46.8654 44.9166 47.7887 49.3366 48.7933 53.7345C49.8866 58.5212 51.0722 63.2933 52.5089 67.992C52.8006 68.9457 54.3112 68.5385 54.0157 67.5812C50.9946 57.7253 48.8303 47.5686 47.2347 37.3973C46.8949 35.2221 46.1046 32.9076 43.9994 31.8329C42.1933 30.9122 40.0955 31.3818 38.4963 32.4968C33.4991 35.9777 35.7521 42.3931 37.1002 47.1321C39.017 53.8775 39.4085 60.9238 41.4546 67.6435C41.7464 68.5899 43.2533 68.1864 42.9615 67.2254Z" fill="black"/>
<path d="M49.2035 47.8405C48.5017 42.4889 48.3688 37.0933 48.3872 31.7014C48.3983 28.9834 49.1813 24.4827 52.7861 24.4167C56.6345 24.347 56.7195 30.0251 56.6678 32.556C56.5976 36.0626 56.1064 39.5619 56.3797 43.0685C56.557 45.3573 56.8968 47.6388 57.1811 49.9129C57.8238 55.0738 58.5366 60.2347 58.9613 65.4175C59.0426 66.4042 60.6049 66.4152 60.5236 65.4175C60.1395 60.6858 59.5043 55.9724 58.9133 51.2591C58.6252 48.9666 58.3298 46.6741 58.0786 44.3779C57.7351 41.2381 57.9457 38.135 58.1266 34.9915C58.3482 31.1658 58.8431 24.325 53.8756 23.0009C49.2589 21.7684 46.9505 27.3401 46.8397 30.9017C46.6624 36.5284 46.9136 42.2542 47.6449 47.8369C47.7668 48.8162 49.3328 48.8309 49.2035 47.8405Z" fill="black"/>
<path d="M58.6181 49.4479C58.9062 46.8326 59.5636 44.2174 60.1028 41.6424C60.6347 39.1079 61.0336 35.891 62.4481 33.6609C64.0326 31.1666 67.3825 31.3684 68.1137 34.2881C68.5643 36.0818 68.0842 38.0295 67.7998 39.8048C66.0307 50.8528 65.2034 61.9961 66.1046 73.1652C66.1858 74.1555 67.7481 74.1629 67.6668 73.1652C67.0907 66.0639 67.1682 58.9444 67.8146 51.8541C68.1396 48.3035 68.5939 44.7639 69.1405 41.239C69.4729 39.1042 70.0454 36.8814 69.7647 34.7062C69.2107 30.4294 64.3317 28.7201 61.5137 32.2927C59.8295 34.4238 59.3642 37.6663 58.8028 40.2449C58.1417 43.2747 57.3919 46.3631 57.0521 49.4479C56.945 50.4383 58.511 50.4309 58.6181 49.4479Z" fill="black"/>
<path d="M57.7861 114.425C57.2912 113.901 57.5719 112.214 57.4094 111.487C57.1176 110.17 56.3974 109 55.5848 107.94C53.849 105.674 51.692 103.795 50.0411 101.452C46.3219 96.1844 43.851 89.8351 42.1742 83.6508C41.8418 82.4221 41.5279 81.1456 40.9665 79.9939C40.3756 78.7798 39.3303 77.9398 38.4993 76.8944C36.3276 74.1728 34.4108 71.1283 32.505 68.2159C30.9353 65.8171 29.2844 63.3192 28.8523 60.4325C28.6196 58.8882 28.7895 57.2926 29.7498 56.0089C30.5771 54.9011 31.951 54.2299 33.1772 55.2056C33.7571 55.6677 34.1596 56.3353 34.5585 56.9479C38.0044 62.2518 40.5085 68.4984 46.2702 71.7592C47.1455 72.2544 47.9322 70.9156 47.0606 70.4204C40.8557 66.9065 39.2713 59.952 34.9463 54.8094C33.24 52.781 30.7839 52.5609 28.9077 54.5527C27.2124 56.3537 26.9391 58.9469 27.4119 61.2688C28.0398 64.3425 29.8421 67.0202 31.5521 69.5988C33.5465 72.6102 35.5003 75.9554 37.9343 78.6294C39.142 79.9572 39.84 81.153 40.346 82.8806C40.8779 84.7036 41.3617 86.5156 41.9933 88.3092C43.1715 91.6618 44.5195 94.9703 46.1889 98.1138C47.9359 101.4 50.1187 104.221 52.6597 106.928C53.9893 108.347 55.4851 109.939 55.9062 111.898C56.1758 113.16 55.7252 114.499 56.6855 115.522C57.3687 116.256 58.4731 115.155 57.7861 114.425Z" fill="black"/>
<path d="M66.5615 71.2343C67.2633 72.6978 69.6381 72.6501 70.5171 71.3993C70.964 70.7611 71.0083 69.9505 71.1154 69.2059C71.3481 67.5956 71.8541 66.0074 72.4598 64.4962C73.4533 62.0203 74.9122 58.2789 77.3942 56.9181C79.455 55.7883 81.3165 57.0831 80.9065 59.3866C80.6406 60.8832 79.8798 62.2844 79.1965 63.6268C77.8558 66.2568 76.9694 68.663 76.6296 71.6121C76.2271 75.104 76.2345 78.6289 75.891 82.1282C75.6915 84.1493 75.3997 86.163 75.0304 88.1621C74.7867 89.4899 74.3324 90.8654 74.3287 92.2189C74.3176 95.6851 75.5623 98.6745 76.6407 101.899C76.9546 102.841 78.4652 102.438 78.1476 101.488C76.951 97.9042 75.4367 94.493 76.131 90.6343C76.7663 87.102 77.3831 83.6137 77.6268 80.0264C77.8743 76.4428 77.7561 72.6794 78.5687 69.1618C79.2519 66.2091 81.1725 63.7552 82.1069 60.8942C82.7348 58.9721 82.8197 56.5843 80.8401 55.4032C79.1226 54.3798 77.0211 55.0951 75.6029 56.2872C73.5346 58.0258 72.3379 60.8722 71.2853 63.2857C70.6464 64.7529 70.0739 66.3228 69.7489 67.889C69.6566 68.3292 69.6196 68.7657 69.5531 69.2059C69.5236 69.5286 69.4645 69.8441 69.3796 70.1559C68.6741 70.8418 68.1829 70.9371 67.9096 70.4493C67.4812 69.5506 66.1331 70.3393 66.5615 71.2343Z" fill="black"/>
<path d="M68.4487 39.1075C67.3075 38.9498 66.6574 37.8824 66.6168 36.7893C66.5725 35.5165 67.5291 34.6986 68.5706 34.152C69.4607 33.6862 68.6703 32.3474 67.7839 32.8132C66.1441 33.6715 64.892 35.1497 65.0767 37.0864C65.2355 38.715 66.3103 40.3693 68.0314 40.6077C69.0175 40.7398 69.4422 39.2469 68.4487 39.1075Z" fill="black"/>
<path d="M44.0591 32.7286C41.2891 32.868 40.3177 35.4649 40.5098 37.9005C40.7314 40.7175 43.2059 41.7812 45.7506 41.7042C46.7552 41.6749 46.7589 40.1233 45.7506 40.1526C44.096 40.204 42.3084 39.8262 42.0721 37.9005C41.8948 36.4406 42.2309 34.3719 44.0591 34.2802C45.06 34.2288 45.0674 32.6773 44.0591 32.7286Z" fill="black"/>
<path d="M32.4677 55.3859C31.5923 56.622 30.9645 58.5183 31.9727 59.8938C33.066 61.3867 35.0604 61.4417 36.7224 61.1373C37.0807 61.0713 37.2653 60.7118 37.2949 60.389C37.2986 60.3487 37.3023 60.312 37.306 60.2716C37.3983 59.2776 35.836 59.2849 35.7437 60.2716C35.74 60.312 35.7363 60.3487 35.7326 60.389C35.9246 60.1396 36.1167 59.8902 36.3051 59.6407C35.3374 59.8168 33.7936 59.9122 33.2137 58.9255C32.6856 58.0305 33.295 56.8971 33.812 56.1635C34.3956 55.3528 33.0401 54.5752 32.4677 55.3859Z" fill="black"/>
<path d="M79.1561 63.4544C78.4322 62.7868 77.7526 61.7157 78.0407 60.685C78.3805 59.4709 79.4811 59.1775 80.6039 59.2252C81.6085 59.2655 81.6085 57.714 80.6039 57.6736C78.8938 57.6039 77.3205 58.2642 76.6557 59.9368C76.0019 61.5764 76.8145 63.414 78.0481 64.5511C78.7867 65.2297 79.8947 64.1366 79.1561 63.4544Z" fill="black"/>
<path d="M21.9396 59.777C21.8694 58.7169 21.7217 57.6495 21.8879 56.5895C22.0393 55.6468 22.5601 55.1553 22.9627 54.3593C23.4096 53.468 22.0615 52.6831 21.6146 53.578C21.4225 53.9632 21.0827 54.2346 20.8685 54.6087C20.61 55.0636 20.4807 55.6028 20.3921 56.109C20.1705 57.3414 20.2961 58.5409 20.3773 59.7806C20.4438 60.7673 22.0061 60.7747 21.9396 59.777Z" fill="black"/>
<path d="M16.4755 60.7256C15.9621 57.7215 16.0286 54.1379 18.0526 51.6106C18.6731 50.8367 17.5724 49.7326 16.9483 50.5139C14.5328 53.5253 14.3481 57.5088 14.9686 61.1364C15.1348 62.1194 16.6417 61.7049 16.4755 60.7256Z" fill="black"/>
<path d="M69.6699 23.3888C71.8121 24.038 73.5295 25.6079 74.379 27.6693C74.7557 28.579 76.2663 28.1829 75.8859 27.2585C74.8185 24.6726 72.7945 22.7176 70.0836 21.8959C69.1196 21.6025 68.7096 23.099 69.6699 23.3888Z" fill="black"/>
<path d="M72.5959 17.411C76.6623 17.9171 79.4655 22.26 81.0537 25.6272C81.4784 26.5296 82.8265 25.7446 82.4018 24.8423C80.5292 20.8699 77.3049 16.4389 72.5959 15.8557C71.6024 15.7384 71.6098 17.2899 72.5959 17.411Z" fill="black"/>
<path d="M75.1747 20.1909C75.8543 19.2299 76.7591 18.4596 77.749 17.8287C78.591 17.2932 77.8117 15.947 76.9586 16.4899C75.7324 17.2712 74.665 18.2249 73.8229 19.4096C73.2431 20.2239 74.5985 21.0015 75.1747 20.1909Z" fill="black"/>
<path d="M77.5608 23.1991C79.2081 22.7222 80.5192 21.5521 82.1443 21.0423C83.1009 20.7452 82.6909 19.245 81.7307 19.5458C80.0982 20.0556 78.7833 21.2257 77.1472 21.7026C76.1832 21.9813 76.5932 23.4815 77.5608 23.1991Z" fill="black"/>
<path d="M48.3535 119.444C48.745 120.882 49.1919 122.294 49.7422 123.681C50.1079 124.598 51.6184 124.198 51.2491 123.27C50.6988 121.883 50.2519 120.471 49.8604 119.033C49.5982 118.069 48.0876 118.476 48.3535 119.444Z" fill="black"/>
<path d="M43.9618 118.53C44.501 120.195 44.9257 121.89 45.4243 123.566C45.9451 125.308 46.5877 126.992 46.8204 128.804C46.946 129.78 48.5083 129.794 48.3827 128.804C47.9247 125.217 46.584 121.556 45.4686 118.115C45.1584 117.169 43.6515 117.573 43.9618 118.53Z" fill="black"/>
<path d="M178.908 105.733C177.035 100.481 175.263 95.184 173.656 89.8434C172.921 90.5807 172.219 91.3546 171.573 92.2019C168.541 96.1744 166.158 100.693 164.98 105.557C162.79 114.599 166.284 123.365 168.097 132.095C169.098 136.907 170.107 142.112 169.907 147.02C169.819 149.206 169.076 151.532 169.627 153.67C171.47 160.826 169.039 169.487 165.416 175.748C163.019 179.889 159.577 183.678 155.049 185.292C149.86 187.141 143.932 185.835 139.234 182.974C134.536 180.113 130.879 175.854 127.57 171.475C118.381 159.319 113.931 144.39 104.55 132.913C103.12 131.163 101.765 129.366 100.177 127.745C99.0796 126.626 97.9014 125.588 96.7971 124.48C92.6901 120.372 89.0115 115.706 85.9128 110.824C84.7383 108.972 83.7891 106.947 82.7402 105.025C82.0532 103.767 81.3736 102.505 80.6571 101.262C79.5196 99.2848 78.6442 100.957 77.2703 101.742C75.5123 102.747 73.6545 103.58 71.8706 104.537C69.3296 105.902 66.844 107.365 64.362 108.833C62.0463 110.204 59.328 111.393 57.2375 113.084C55.4758 114.507 55.8673 117.463 56.5432 119.367C56.9605 120.545 57.4074 121.715 57.7841 122.914C59.5754 128.643 61.9835 134.237 64.6612 139.611C69.6361 149.599 75.5271 159.198 82.1197 168.217C86.4299 174.119 93.5285 175.355 96.7676 182.24C97.4028 183.586 97.9236 184.98 98.4037 186.392C99.5856 189.859 100.531 193.42 102.337 196.604C105.513 202.205 111.013 206.06 116.331 209.721C122.263 213.833 128.442 220.38 135.319 222.504C143.633 225.071 153.006 224.598 161.039 221.301C170.997 217.215 177.464 209.453 182.14 200.1C187.395 189.584 184.042 176.254 186.937 164.777C188.525 158.483 191.344 152.661 194.568 146.994C189.127 133.327 183.853 119.598 178.908 105.733Z" fill="black"/>
<path d="M55.3924 25.8576C52.7405 26.4995 51.4441 27.963 51.3592 30.725C51.2816 33.3403 53.7636 34.5654 56.1199 34.4921C57.1245 34.4627 57.1282 32.9112 56.1199 32.9405C54.3065 32.9955 52.7811 32.2546 52.9584 30.3069C53.1283 28.4545 54.0591 27.7723 55.806 27.3505C56.7848 27.1194 56.3711 25.6229 55.3924 25.8576Z" fill="black"/>
</g>
<defs>
<clipPath id="clip0_1009_1676">
<rect width="133" height="168" fill="white"/>
</clipPath>
</defs>
</svg>
