<svg width="1440" height="719" viewBox="0 0 1440 719" fill="none" xmlns="http://www.w3.org/2000/svg">
<path d="M0 1C0 1 100.926 20.9921 119 72C132.666 110.568 93.2652 165.128 54 137C24.1547 115.62 42.5713 71.0419 54 61C122.34 0.953274 200.236 115.253 226 202.5C248 277 237.5 366 242 448.5C246.5 531 280.116 646.348 393 673C479.3 693.375 518.34 621.503 607 623C698.312 624.542 737.343 692.454 828.5 698C988.18 707.715 1165.57 687.535 1203 532C1252.91 324.605 1062.68 292.536 1035.5 202.5C1020.68 153.394 1008.31 104.999 1054 61C1113.8 3.4102 1234.5 61 1234.5 61" stroke="black" stroke-dasharray="6 6"/>
<path d="M1233.66 45.636L1235.19 23.7001L1288.31 83.9286L1233.66 45.636Z" fill="#FDFDFD" stroke="black"/>
<path d="M1287.04 84.2565L1225.35 57.1497L1233.26 46.5779L1287.04 84.2565Z" fill="#D6D6D6" stroke="black"/>
<path d="M1236.54 62.5213L1226.25 57.5794L1231.78 56.7011L1236.54 62.5213Z" fill="#767676" stroke="black"/>
<path d="M1289.24 86.1615L1216.79 83.4371L1232.18 56.8474L1289.24 86.1615Z" fill="white" stroke="black"/>
</svg>
